<svg  viewBox="0 0 176 189" fill="none" xmlns="http://www.w3.org/2000/svg">
<path d="M175.769 171.264C175.769 171.264 167.801 149.791 167.664 149.525L146.879 109.262C146.242 108.026 144.961 107.249 143.562 107.247L37.61 107.13C37.6084 107.13 37.6072 107.13 37.6057 107.13C36.2052 107.13 34.9223 107.908 34.2839 109.145L13.4389 149.525C13.3022 149.789 5.33297 171.264 5.33297 171.264C4.90989 172.4 5.07331 173.669 5.77097 174.663C6.46863 175.656 7.61254 176.248 8.83345 176.248H11.8044V180.845C11.8044 185.205 15.3815 188.754 19.7788 188.754H44.6184C49.0157 188.754 52.5936 185.206 52.5936 180.845V176.248H128.507V180.845C128.507 185.205 132.084 188.754 136.482 188.754H161.322C165.719 188.754 169.297 185.206 169.297 180.845V176.248H172.268C173.488 176.248 174.633 175.656 175.33 174.663C176.028 173.669 176.192 172.399 175.769 171.264ZM39.8864 114.535L141.275 114.646L158.24 147.511H22.8636L39.8864 114.535ZM45.1302 180.844C45.1302 181.114 44.8914 181.352 44.6188 181.352H19.7792C19.5073 181.352 19.2685 181.115 19.2685 180.844V176.248H45.1302V180.844ZM161.833 180.844C161.833 181.114 161.595 181.352 161.323 181.352H136.482C136.21 181.352 135.971 181.115 135.971 180.844V176.248H161.833V180.844ZM14.1916 168.846L19.3856 154.912H161.717L166.91 168.846H14.1916Z" fill="#7642F9"/>
<path d="M173.449 37.1677V49.5569H161.06V74.3354H148.671V86.7246H130.087V49.5569H43.3623V86.7246H24.7785V74.3354H12.3892V49.5569H0V37.1677H12.3892V12.3892H24.7785V0H43.3623V37.1677H130.087V0H148.671V12.3892H161.06V37.1677H173.449Z" fill="#7642F9"/>
</svg>
