<svg width="778" height="491" viewBox="0 0 778 491" fill="none" xmlns="http://www.w3.org/2000/svg">
<g clip-path="url(#clip0_61_107)">
<mask id="mask0_61_107" style="mask-type:luminance" maskUnits="userSpaceOnUse" x="0" y="0" width="832" height="515">
<path d="M832 0H0V515H832V0Z" fill="white"/>
</mask>
<g mask="url(#mask0_61_107)">
<mask id="mask1_61_107" style="mask-type:luminance" maskUnits="userSpaceOnUse" x="146" y="143" width="453" height="377">
<path d="M146.254 143.17H598.268V519.516H146.254V143.17Z" fill="white"/>
</mask>
<g mask="url(#mask1_61_107)">
<mask id="mask2_61_107" style="mask-type:luminance" maskUnits="userSpaceOnUse" x="143" y="281" width="205" height="134">
<path d="M143.694 292.085L341.517 281.72L347.946 404.361L150.123 414.726L143.694 292.085Z" fill="white"/>
</mask>
<g mask="url(#mask2_61_107)">
<path d="M176.497 377.409L215.83 350.881L225.867 377.68L184.065 396.837C173.893 394.751 172.795 387.426 176.497 377.409Z" fill="#F8A68B"/>
<path d="M210.281 384.868L205.702 357.723L224.584 378.344L210.281 384.868Z" fill="#EA8577"/>
<path d="M200.984 389.17C198.14 380.33 196.076 372.758 193.69 365.858L180.833 373.854C180.833 373.854 172.4 366.319 170.593 354.567C168.883 343.524 172.12 332.579 165.052 330.627C157.984 328.676 149.81 340.832 149.432 354.068C149.124 364.086 153.09 375.01 155.997 385.038C160.063 398.994 156.058 407.776 168.191 410.951C180.324 414.125 187.702 397.01 187.702 397.01L200.984 389.17Z" fill="#AEDCFF"/>
<path d="M206.581 357.259L318.601 284.059L340.598 327.735L229.829 377.116L206.581 357.259Z" fill="#1056AC"/>
<path d="M340.596 327.741L335.014 316.663C324.965 314.629 316.981 313.381 313.184 313.639C297.456 314.582 231.401 367.396 224.715 372.747L229.827 377.123L340.596 327.741Z" fill="#2170BF"/>
<path d="M459.711 366.019L459.499 366.507C458.399 365.969 349.523 310.65 320.474 310.744C308.446 310.719 287.595 320.682 260.063 339.508C239.255 353.696 221.793 368.125 221.621 368.253L221.302 367.853C221.474 367.725 238.936 353.296 259.801 339.046C287.851 319.895 308.24 310.194 320.502 310.147C349.614 310.11 458.611 365.482 459.711 366.019Z" fill="#3849C9"/>
<path d="M220.085 348.159L229.819 377.118L214.701 382.851L205.703 357.723L220.085 348.159Z" fill="#2170BF"/>
<path d="M199.838 385.421C199.766 385.186 199.697 385.011 199.626 384.777C197.082 386.22 194.598 387.66 192.226 388.974C191.864 387.743 191.499 386.452 191.133 385.162C193.617 383.722 196.039 382.226 198.52 380.727C198.448 380.493 198.38 380.318 198.308 380.083C195.886 381.579 193.402 383.019 190.98 384.515C190.609 383.106 190.24 381.756 189.868 380.346C192.171 378.856 194.665 377.595 197.23 376.568C197.158 376.333 197.09 376.158 197.018 375.924C194.456 377.01 192.021 378.269 189.656 379.702C189.362 378.646 189.125 377.528 188.832 376.471C191.134 374.982 193.503 373.607 195.875 372.293C195.803 372.058 195.734 371.883 195.662 371.649C193.291 372.964 190.922 374.338 188.616 375.768C188.391 374.887 188.166 374.006 187.942 373.124C190.116 371.463 192.363 370.035 194.672 368.664C194.6 368.43 194.532 368.255 194.46 368.021C192.148 369.332 189.904 370.819 187.785 372.418C187.564 371.596 187.398 370.712 187.176 369.89L186.601 370.277C188.45 378.277 190.589 386.143 192.904 393.94L193.482 393.612C193.057 392.324 192.691 391.034 192.326 389.743C194.81 388.303 197.354 386.86 199.838 385.421Z" fill="#B2B2B2"/>
<path d="M168.195 410.952C176.828 413.238 183.073 405.171 185.918 400.379C181.241 394.075 167.559 389.731 157.855 394.288C159.081 402.916 158.962 408.578 168.195 410.952Z" fill="#97C9F2"/>
<path d="M169.883 342.099C169.76 336.331 169.229 331.893 164.998 330.686C158.471 328.825 151.032 339.097 149.58 351.14C158.663 351.795 165.926 349.51 169.883 342.099Z" fill="#97C9F2"/>
</g>
<mask id="mask3_61_107" style="mask-type:luminance" maskUnits="userSpaceOnUse" x="313" y="156" width="120" height="140">
<path d="M313.209 156.6H432.066V295.253H313.209V156.6Z" fill="white"/>
</mask>
<g mask="url(#mask3_61_107)">
<path d="M335.999 207.218C334.346 218.493 351.408 225.518 351.408 225.518C351.408 225.518 362.803 220.618 362.921 220.5C362.98 220.441 355.718 189.39 355.718 189.39C355.718 189.39 339.483 175.93 336.767 177.288C332.575 179.413 327.38 191.633 327.38 191.633C327.38 191.633 336.236 205.447 335.999 207.218Z" fill="#F2AB70"/>
<path d="M340.188 171.26L344.616 176.455L340.778 180.765L337.944 176.042L340.188 171.26Z" fill="#F2AB70"/>
<path d="M344.737 219.084L322.007 204.384C321.83 204.266 321.83 204.089 321.889 203.912L348.81 162.176C348.869 162.058 349.046 162.058 349.164 162.117L372.071 176.875C372.189 176.934 372.189 177.111 372.13 177.229L345.209 218.966C345.091 219.143 344.914 219.202 344.737 219.084Z" fill="#191919"/>
<path d="M345.385 215.83L324.662 202.489L348.75 165.239C348.927 164.944 349.281 164.885 349.576 165.062L369.236 177.754C369.531 177.931 369.59 178.286 369.413 178.581L345.385 215.83Z" fill="white"/>
<path d="M349.752 205.095C346.387 209.935 346.564 218.259 346.564 218.259C348.04 222.923 355.361 217.669 357.545 216.016C359.789 214.422 361.442 211.588 363.272 206.216C365.102 200.844 364.394 196.594 365.102 194.233C365.87 191.871 365.752 190.75 365.752 189.038C365.752 187.326 367.936 185.437 367.405 184.669C366.873 183.902 364.748 184.256 362.859 186.499C360.969 188.743 358.195 197.42 358.195 197.42C358.195 197.42 353.117 200.254 349.752 205.095Z" fill="#FFC48E"/>
<path d="M376.968 261.639L413.453 250.954C413.453 250.954 426.678 276.515 420.951 280.766C415.166 284.957 367.817 291.51 360.969 290.86C354.12 290.27 338.416 225.806 338.416 225.806C342.372 224.389 364.334 215.357 369.647 214.59C370.474 221.969 376.968 261.639 376.968 261.639Z" fill="#E0750A"/>
<path d="M338.062 180.122C336.704 180.063 335.641 177.997 335.759 175.4C335.818 172.861 335.759 171.445 338.416 170.854C341.072 170.264 340.836 172.98 340.718 175.577C340.6 178.115 339.419 180.181 338.062 180.122Z" fill="#FFC48E"/>
<path d="M334.755 185.553C333.397 185.671 332.039 183.428 331.685 180.535C331.331 177.643 331.036 176.049 333.574 174.986C336.113 173.983 336.29 177.111 336.644 180.004C336.939 182.897 336.113 185.376 334.755 185.553Z" fill="#FFC48E"/>
<path d="M330.566 190.629C329.208 190.806 327.85 188.621 327.555 185.788C327.26 182.954 326.964 181.419 329.503 180.416C332.042 179.412 332.219 182.423 332.514 185.257C332.809 188.09 331.924 190.451 330.566 190.629Z" fill="#FFC48E"/>
<path d="M329.443 197.008C328.262 197.362 326.668 195.768 325.842 193.348C325.015 190.928 324.425 189.629 326.432 188.271C328.439 186.913 329.207 189.511 330.034 191.931C330.86 194.352 330.624 196.595 329.443 197.008Z" fill="#FFC48E"/>
<path d="M365.81 188.613C365.397 188.082 365.574 187.078 365.633 186.547C365.751 185.72 365.928 184.953 366.4 184.363C366.105 184.363 365.81 184.422 365.515 184.54C365.161 185.248 365.042 186.075 364.983 186.842C364.865 187.728 364.865 188.967 365.751 189.439C365.751 189.262 365.751 189.144 365.751 189.026C365.751 188.908 365.81 188.731 365.81 188.613Z" fill="#F2AB70"/>
<path d="M364.511 193.465C364.57 193.524 364.629 193.524 364.57 193.583H364.629C364.748 193.583 364.807 193.524 364.866 193.465C364.925 193.406 364.984 193.288 364.984 193.229C364.984 193.17 364.925 193.052 364.866 192.993C364.807 192.934 364.688 192.875 364.57 192.816C364.452 192.816 364.393 192.756 364.275 192.756C364.098 192.697 363.862 192.756 363.626 192.816C363.567 192.875 363.508 192.934 363.449 192.993C363.39 193.052 363.39 193.17 363.39 193.229C363.449 193.288 363.508 193.347 363.567 193.406C363.626 193.465 363.744 193.524 363.803 193.465C363.862 193.465 363.98 193.406 364.039 193.406H363.98C364.039 193.406 364.157 193.406 364.216 193.406H364.157C364.216 193.406 364.334 193.406 364.393 193.465C364.393 193.406 364.334 193.406 364.334 193.406C364.452 193.406 364.511 193.465 364.511 193.465Z" fill="#F2AB70"/>
<path d="M336.292 177.581C336.233 177.994 336.292 178.348 336.351 178.761C336.587 179.234 336.941 179.647 337.237 179.883C337.237 179.824 337.296 179.765 337.237 179.706C336.941 178.938 336.823 178.053 336.882 177.226C336.941 176.754 337.119 175.455 337.827 175.633C338.535 175.81 338.949 176.754 339.126 177.344C339.362 177.994 339.421 178.643 339.48 179.352C339.716 179.056 339.893 178.761 340.07 178.407C340.011 177.994 339.893 177.581 339.775 177.167C339.598 176.518 339.244 175.81 338.654 175.337C338.122 174.924 337.296 174.806 336.823 175.455C336.41 176.046 336.292 176.872 336.292 177.581Z" fill="#F2AB70"/>
<path d="M332.929 184.303C333.224 184.716 333.519 185.011 333.814 185.247C333.637 184.598 333.519 183.89 333.46 183.299C333.46 182.768 333.46 182.237 333.519 181.764C333.578 181.41 333.578 181.056 333.814 180.761C334.405 179.994 335.408 181.41 335.704 181.883C336.058 182.473 336.294 183.063 336.412 183.654C336.53 183.24 336.589 182.768 336.648 182.296C336.589 182.06 336.471 181.824 336.353 181.646C335.94 180.997 335.349 180.171 334.582 179.934C333.755 179.698 333.165 180.171 332.929 180.938C332.693 181.764 332.752 182.709 332.811 183.535C332.87 183.772 332.87 184.067 332.929 184.303Z" fill="#F2AB70"/>
<path d="M329.976 184.85C329.09 184.85 328.5 185.618 328.323 186.385C328.145 187.271 328.441 188.274 328.677 189.16C328.736 189.337 328.854 189.573 328.913 189.75C329.326 190.222 329.74 190.517 330.153 190.635C329.74 189.986 329.444 189.337 329.208 188.628C328.972 187.802 328.559 186.562 329.267 185.854C330.448 184.614 331.688 187.271 332.278 188.746C332.396 188.392 332.455 188.038 332.514 187.625C332.337 187.212 332.101 186.798 331.865 186.385C331.452 185.677 330.861 184.85 329.976 184.85Z" fill="#F2AB70"/>
<path d="M326.789 195.293C327.084 195.765 327.438 196.119 327.733 196.414C327.615 195.942 327.497 195.47 327.438 194.938C327.379 194.525 327.32 194.112 327.32 193.699C327.32 193.285 327.32 192.872 327.497 192.518C327.969 191.692 328.737 192.636 329.091 193.049C329.386 193.344 329.622 193.64 329.918 193.935C330.095 194.171 330.39 194.407 330.449 194.761C330.508 194.348 330.449 193.935 330.39 193.462C330.036 193.167 329.741 192.813 329.445 192.518C328.855 191.928 328.087 191.101 327.261 191.751C326.552 192.341 326.611 193.581 326.67 194.466C326.729 194.761 326.73 194.997 326.789 195.293Z" fill="#F2AB70"/>
<path d="M379.391 269.855L376.971 261.649L379.805 260.764C380.513 264.365 380.277 267.316 379.391 269.855Z" fill="#C45400"/>
<path d="M361.146 211.401C361.205 211.696 361.323 211.932 361.382 212.227C360.496 213.349 359.434 214.293 358.253 215.12C357.899 215.356 357.544 214.766 357.899 214.529C359.198 213.703 360.26 212.64 361.146 211.401Z" fill="#F2AB70"/>
<path d="M346.448 233.054L340.722 227.151L346.094 233.172L346.33 233.408V233.054L346.862 225.144L346.507 225.321C348.751 227.387 350.994 229.394 353.238 231.401L353.651 231.755L353.71 231.224L354.596 222.31L354.064 222.487L359.083 227.8L359.437 228.154L359.555 227.682C360.145 225.144 360.736 222.546 361.267 219.949L360.913 220.067L367.289 225.911L367.525 226.147V225.852L367.702 217.942L367.289 225.852L367.525 225.734L361.267 219.772L360.972 219.476L360.854 219.89C360.263 222.428 359.673 225.026 359.083 227.623L359.555 227.505L354.537 222.192L354.123 221.72L354.064 222.369L353.238 231.283L353.71 231.106C351.467 229.099 349.223 227.092 346.921 225.085L346.566 224.789V225.262L346.212 233.172L346.448 233.054Z" fill="#FFE5D2"/>
<path d="M346.801 235.594C345.739 235.889 344.617 236.184 343.495 236.48C345.739 236.125 347.982 235.653 350.225 235.181C352.469 234.65 354.712 234.059 356.897 233.41C359.081 232.702 361.266 231.993 363.391 231.108C365.516 230.222 367.583 229.278 369.531 228.038C369.059 228.274 368.527 228.51 367.996 228.746C367.465 228.982 366.933 229.16 366.402 229.396C365.871 229.632 365.339 229.868 364.808 230.045C364.277 230.222 363.745 230.458 363.214 230.635C361.088 231.462 358.904 232.17 356.72 232.82C354.535 233.469 352.292 234.118 350.107 234.709C348.986 235.004 347.923 235.299 346.801 235.594Z" fill="#FFE5D2"/>
<mask id="mask4_61_107" style="mask-type:luminance" maskUnits="userSpaceOnUse" x="314" y="157" width="120" height="140">
<path d="M314.636 157.867H433.493V296.521H314.636V157.867Z" fill="white"/>
</mask>
<g mask="url(#mask4_61_107)">
<path d="M343.299 188.456L342.526 188.753L341.812 188.396C342.823 187.98 343.477 187.743 343.775 187.683L344.666 187.505C345.201 187.445 345.737 187.445 346.272 187.564C346.926 187.683 348.115 188.218 348.59 188.694C348.947 189.05 349.244 189.645 349.304 190.121C349.304 190.239 349.304 190.299 349.304 190.418C349.304 191.785 348.412 192.796 347.104 193.034C346.747 193.093 346.272 193.034 345.915 192.915C345.439 192.736 344.726 192.201 344.31 191.845C344.072 191.607 343.893 191.369 343.656 191.191L343.061 190.596L343.418 190.061L343.893 190.596C344.488 191.191 345.737 192.439 346.628 192.499C348.174 192.617 349.304 190.893 348.531 189.526C348.472 189.348 348.293 189.11 348.055 188.991C346.985 188.278 346.153 187.98 344.904 188.099C344.607 188.159 344.429 188.218 344.25 188.218C344.072 188.218 343.537 188.396 343.299 188.456Z" fill="#0071FF"/>
<path d="M342.108 182.637C341.87 182.756 341.632 182.816 341.454 182.935L341.989 182.043L342.049 181.983L342.881 182.518C342.643 182.518 342.405 182.578 342.108 182.637Z" fill="#0071FF"/>
<path d="M356.029 191.023L355.791 191.321L355.375 192.093C355.375 191.856 355.316 191.558 355.256 191.202C355.137 190.726 355.078 190.607 355.019 190.369C355.197 190.488 355.375 190.607 355.554 190.726C355.613 190.726 355.791 190.845 356.029 191.023Z" fill="#0071FF"/>
<path d="M351.091 193.819C351.27 193.641 351.567 193.284 351.686 193.106L351.924 192.57C352.043 192.333 352.459 192.333 352.459 192.808C352.459 193.343 352.459 194.057 352.459 194.651C352.459 194.711 352.459 194.83 352.459 194.948C352.518 195.067 352.518 195.127 352.518 195.186L351.924 194.77C351.924 194.651 351.924 194.77 351.924 194.651C351.924 194.532 351.924 194.473 351.924 194.354V193.938V193.878C351.924 193.819 351.924 193.878 351.924 193.819C351.686 194.116 351.448 194.295 351.329 194.413L350.794 194.057C350.853 193.997 350.913 193.997 351.091 193.819Z" fill="#0071FF"/>
<path d="M342.172 183.885C341.637 184.063 341.043 184.36 340.329 184.658L340.864 183.766C341.34 183.528 341.756 183.409 342.053 183.29L342.707 183.112C343.242 182.993 343.48 182.874 343.718 182.993L344.313 183.409C344.075 183.469 343.778 183.469 343.54 183.528C343.421 183.528 343.302 183.528 343.183 183.587L342.172 183.885Z" fill="#0071FF"/>
<path d="M349.188 181.208L349.545 180.673C349.724 180.851 351.091 181.268 352.161 181.981C352.637 182.278 352.994 182.457 353.231 182.635C353.41 182.754 353.766 182.992 354.183 183.348L353.826 183.883C353.767 183.705 352.696 182.992 352.399 182.813C351.745 182.397 351.269 182.1 350.556 181.743C350.318 181.624 350.08 181.565 349.842 181.446L349.188 181.208Z" fill="#0071FF"/>
<path d="M348.062 182.873L348.36 182.457C348.419 182.398 348.538 182.457 348.657 182.517L349.668 182.933C350.679 183.349 350.976 183.587 351.808 184.122C352.343 184.478 352.938 184.954 353.116 185.132L352.819 185.549C352.641 185.37 351.927 184.835 351.392 184.478C351.333 184.419 350.916 184.122 350.5 183.884C350.203 183.706 349.906 183.587 349.549 183.408C348.835 183.111 348.122 182.933 348.062 182.873Z" fill="#0071FF"/>
<path d="M348.656 181.985L349.013 181.45C349.191 181.568 349.251 181.568 349.37 181.568C350.737 182.103 352.164 182.936 353.353 183.887C353.472 184.006 353.532 184.065 353.651 184.184L353.353 184.66C353.056 184.363 351.986 183.59 351.867 183.53C351.094 183.055 350.262 182.579 349.37 182.222C349.251 182.163 349.132 182.163 349.013 182.103C348.894 182.103 348.775 182.044 348.656 181.985Z" fill="#0071FF"/>
<path d="M346.988 184.605L347.345 184.07C347.464 184.129 347.642 184.129 347.702 184.308C348.177 184.427 349.248 184.902 349.842 185.259C350.437 185.556 350.972 185.972 351.269 186.21C351.566 186.448 351.804 186.567 351.983 186.805L351.685 187.28C351.507 187.102 351.626 187.161 351.15 186.805C350.675 186.448 350.258 186.091 349.545 185.675C348.296 184.962 347.286 184.783 346.988 184.605Z" fill="#0071FF"/>
<path d="M347.521 183.764L347.878 183.229L348.592 183.586C348.83 183.645 349.067 183.764 349.305 183.883C350.138 184.299 351.862 185.31 352.516 186.023L352.218 186.499C352.1 186.38 351.802 186.202 351.505 185.964C351.267 185.726 350.673 185.31 350.019 184.953C349.305 184.537 348.651 184.18 348.294 184.062L347.521 183.764Z" fill="#0071FF"/>
<path d="M342.95 192.335C343.664 193.048 344.199 193.465 345.091 194.059C345.983 194.654 346.696 194.594 346.934 194.654L346.577 195.189C344.853 195.07 343.129 193.405 342.059 192.276L342.415 191.741C342.475 191.859 342.832 192.216 342.95 192.335Z" fill="#0071FF"/>
<path d="M342.947 190.964C343.838 191.915 344.373 192.51 345.563 193.283C345.919 193.52 346.336 193.58 346.692 193.758C347.168 193.818 347.168 193.758 347.584 193.758L347.168 194.353C346.573 194.353 345.919 194.234 345.265 193.818C344.374 193.223 343.601 192.569 342.887 191.796C342.768 191.678 342.709 191.559 342.59 191.499L342.947 190.964Z" fill="#0071FF"/>
<path d="M341.876 194.054C342.59 194.767 343.065 195.183 344.017 195.778C344.671 196.194 345.265 196.313 345.622 196.432C345.8 196.432 345.919 196.432 345.979 196.432L345.622 196.967C343.838 196.848 342.055 195.124 340.984 193.994L341.341 193.459C341.401 193.578 341.757 193.935 341.876 194.054Z" fill="#0071FF"/>
<path d="M341.811 192.619C342.762 193.57 343.297 194.164 344.486 194.937C344.724 195.115 345.14 195.353 345.556 195.472C345.854 195.532 346.151 195.591 346.329 195.591L345.973 196.186C345.675 196.067 345.378 196.067 345.081 195.948C344.784 195.829 344.546 195.71 344.189 195.472C343.238 194.878 342.465 194.224 341.751 193.451C341.632 193.332 341.573 193.213 341.454 193.154L341.811 192.619Z" fill="#0071FF"/>
<path d="M353.529 192.87C353.529 193.405 353.588 193.999 353.648 194.594L353.172 195.307L352.934 192.691C352.934 192.394 352.875 191.383 352.815 191.027C352.756 190.729 352.696 190.492 352.637 190.194C352.637 190.075 352.518 189.957 352.637 189.778C352.756 189.659 352.934 189.6 353.053 189.719C353.231 189.838 353.291 190.61 353.35 190.848L353.41 191.264C353.469 191.799 353.469 192.335 353.529 192.87Z" fill="#0071FF"/>
<path d="M354.721 192.979L354.245 193.752C354.245 193.336 354.245 193.039 354.186 192.92C354.186 192.801 354.127 192.325 354.067 191.85C353.948 191.315 353.829 190.661 353.829 190.601C353.77 190.423 353.71 189.947 353.532 189.591C353.413 189.294 353.413 189.353 353.413 189.353L353.651 189.531L354.127 189.829C354.305 190.601 354.424 191.136 354.483 191.434C354.602 192.088 354.721 192.979 354.721 192.979Z" fill="#0071FF"/>
<path d="M341.281 185.55L339.378 186.144L339.794 185.372C339.913 185.372 339.972 185.312 340.032 185.312C340.864 185.074 342.707 184.361 343.361 184.242C343.421 184.242 343.718 184.183 344.313 184.064C344.788 184.004 345.205 184.004 345.442 184.183C345.621 184.302 345.977 184.539 346.156 184.658L345.799 184.599C345.74 184.599 345.74 184.599 345.68 184.599C345.561 184.599 345.561 184.599 345.442 184.599C345.264 184.599 345.145 184.599 344.967 184.599L344.253 184.658C343.718 184.777 342.648 185.074 342.172 185.253C341.875 185.312 341.578 185.431 341.281 185.55Z" fill="#0071FF"/>
<path d="M347.048 185.244C347.345 185.303 347.642 185.363 348.296 185.66C348.891 185.957 349.366 186.195 349.664 186.373C350.139 186.67 350.496 186.908 350.793 187.265C351.328 187.859 351.745 188.632 351.923 189.346C351.982 189.762 352.042 190.059 352.042 190.475C352.042 191.545 351.804 192.021 351.388 192.913C351.269 193.21 350.793 193.805 350.615 193.923L350.139 193.626C350.139 193.567 350.318 193.507 350.377 193.388C350.556 193.151 350.734 192.913 350.793 192.794C350.853 192.616 350.912 192.497 350.972 192.378L351.269 191.545C351.447 190.773 351.447 190 351.21 189.227C351.15 188.989 351.031 188.751 350.912 188.513C350.853 188.395 350.853 188.335 350.793 188.276C350.318 187.622 350.08 187.384 349.307 186.849C349.069 186.73 348.712 186.492 348.356 186.314C347.939 186.076 347.583 185.957 347.523 185.957C346.929 185.779 346.453 185.66 345.859 185.6C345.68 185.6 345.502 185.6 345.323 185.6L344.313 185.719L343.302 185.957C342.707 186.135 342.351 186.314 341.816 186.492C341.637 186.552 341.518 186.611 341.34 186.67L340.032 187.146L339.378 186.73L340.329 186.433C340.983 186.195 342.232 185.719 342.767 185.541C343.778 185.244 344.491 185.065 345.561 185.065C345.977 185.006 346.572 185.125 347.048 185.244Z" fill="#0071FF"/>
<path d="M347.758 191.082C347.521 191.38 346.985 191.439 346.688 191.261C345.321 190.369 344.548 189.358 344.31 189.299C344.429 189.239 344.369 189.239 344.488 189.239L345.023 189.18C345.915 189.18 346.688 189.358 347.521 189.893C347.877 190.131 348.056 190.607 347.818 190.963L347.758 191.082ZM343.775 188.704C343.656 188.704 343.596 188.704 343.537 188.823C343.418 189.002 343.418 189.12 343.478 189.18L344.31 190.072C344.904 190.666 346.213 191.915 347.045 191.974C348.531 192.093 349.126 190.131 347.937 189.358C347.342 188.942 346.629 188.704 345.915 188.585C345.202 188.467 344.429 188.467 343.775 188.704Z" fill="#0071FF"/>
<path d="M341.577 187.804C341.518 187.863 341.399 187.863 341.28 187.923L340.626 187.507C340.804 187.447 340.923 187.388 340.983 187.388C342.35 186.912 343.48 186.377 344.966 186.258C345.145 186.258 345.323 186.258 345.501 186.258C345.858 186.258 346.215 186.318 346.572 186.377C347.642 186.555 348.355 186.972 349.307 187.566C350.912 188.577 351.447 191.074 350.139 192.738C349.782 193.154 349.723 193.214 349.604 193.333L349.069 192.976C349.485 192.738 349.663 192.441 349.901 192.025C350.317 191.371 350.377 190.539 350.198 189.825C350.08 189.231 349.663 188.458 348.95 187.982C348.117 187.447 347.285 187.09 346.453 186.912C345.977 186.853 345.382 186.793 344.907 186.853L343.48 187.15C342.885 187.269 342.112 187.626 341.577 187.804Z" fill="#0071FF"/>
</g>
</g>
<mask id="mask5_61_107" style="mask-type:luminance" maskUnits="userSpaceOnUse" x="155" y="147" width="442" height="359">
<path d="M155.703 147.013H596.425V505.532H155.703V147.013Z" fill="white"/>
</mask>
<g mask="url(#mask5_61_107)">
<path d="M531.003 148.234C539.918 151.009 548.36 154.61 547.888 166.18C547.416 177.75 542.87 182.473 531.18 181.942C527.047 181.765 523.269 180.466 520.14 178.282C520.494 179.639 520.789 180.997 520.907 182.473C524.095 222.674 492.805 223.973 492.805 223.973C492.805 223.973 443.154 201.068 459.803 168.246C470.548 146.994 491.802 157.856 511.166 163.051C511.107 162.107 511.048 161.103 511.107 160.1C511.638 148.529 519.904 144.81 531.003 148.234Z" fill="black"/>
<path d="M469.484 216.427L493.158 210.169L491.446 223.097L491.328 225.163C492.509 231.893 499.003 248.836 499.003 248.836L499.948 249.19C499.948 249.19 503.962 254.267 499.534 255.506C495.107 256.746 483.83 265.778 478.93 268.021C474.03 270.264 456.791 265.896 453.308 264.951C449.824 264.007 453.544 256.392 453.544 256.392L465.706 239.036L466.532 228.292L467.122 217.076L469.484 216.427Z" fill="#FFC48E"/>
<path d="M466.06 234.374L486.841 218.671L469.307 216.487L466.945 217.136L466.06 234.374Z" fill="#D3875E"/>
<path d="M458.03 187.838C458.325 178.038 462.281 171.958 462.281 171.958C465.292 185.89 475.623 178.51 481.232 187.424C486.25 195.394 484.302 208.912 491.386 194.39C493.099 190.907 503.962 189.373 503.253 199.526C502.604 209.68 492.862 210.093 492.862 210.093C492.862 210.093 491.209 218.653 488.553 219.833C484.361 221.722 460.037 229.574 452.598 218.948C451.241 217.059 450.65 214.993 450.473 212.986C450.237 210.388 453.72 202.183 453.72 202.183C453.72 202.183 446.34 198.523 449.115 196.338C452.185 193.918 458.03 187.838 458.03 187.838Z" fill="#FFC48E"/>
<path d="M492.923 203.784C492.864 204.08 493.041 204.434 493.396 204.493C493.514 204.493 493.632 204.493 493.691 204.552C494.99 204.788 498.414 205.496 499.417 202.899C499.713 202.073 499.536 201.482 499.299 201.128C498.65 200.124 497.056 199.711 496.111 199.534L496.82 197.586C496.938 197.291 496.761 196.937 496.466 196.819C496.17 196.701 495.816 196.878 495.698 197.173L494.694 199.829C494.635 200.006 494.635 200.184 494.753 200.361C494.872 200.538 495.049 200.656 495.226 200.656C496.17 200.715 497.823 201.069 498.237 201.777C498.296 201.954 498.355 202.132 498.237 202.486C497.705 203.903 495.757 203.725 493.927 203.371C493.809 203.371 493.691 203.312 493.632 203.312C493.278 203.253 492.982 203.43 492.923 203.784Z" fill="black"/>
<path d="M460.035 194.931L462.279 187.965L470.072 192.688L469.54 198.178C469.54 198.178 467.238 198.237 464.935 197.942C462.633 197.647 460.035 194.931 460.035 194.931Z" fill="#F2AB70"/>
<path d="M469.246 198.631C469.009 198.631 468.773 198.631 468.537 198.631C465.644 198.631 462.161 197.922 460.154 194.912C459.977 194.676 460.036 194.38 460.272 194.203C460.508 194.026 460.803 194.085 460.98 194.321C462.692 196.742 465.762 197.686 469.246 197.568C469.541 197.568 469.777 197.804 469.777 198.099C469.777 198.395 469.541 198.631 469.246 198.631Z" fill="#191919"/>
<path d="M462.28 189.426C462.988 190.843 470.782 193.263 470.782 193.145C470.9 192.378 467.534 188.599 464.819 187.124C462.044 185.589 461.631 187.95 462.28 189.426Z" fill="#191919"/>
<path d="M412.039 251.298L465.941 238.547L450.06 277.45L413.22 282.999C418.474 277.981 417.293 256.021 412.039 251.298Z" fill="#E0750A"/>
<path d="M217.807 453.96L233.747 428.28L262.794 436.073L232.626 466.238C218.575 470.902 216.921 469.013 217.807 453.96Z" fill="#FFC48E"/>
<path d="M244.255 454.551L226.661 439.615C226.661 439.615 219.813 449.592 214.736 453.429C211.843 455.672 196.493 467.538 181.084 473.087C169.69 477.16 154.694 473.205 155.757 480.289C156.76 487.373 165.38 490.443 181.792 492.686C190.53 493.866 198.028 489.675 207.356 488.553C215.503 487.609 225.776 489.852 229.2 488.553C243.664 483.122 235.045 468.246 235.045 468.246L244.255 454.551Z" fill="#AEDCFF"/>
<path d="M248.741 449.958L231.502 431.835L252.992 445.767L248.741 449.958Z" fill="#D3875E"/>
<path d="M491.683 327.394C475.034 356.851 470.901 370.605 470.901 370.605L394.801 341.148C394.801 341.148 415.641 313.462 418.062 304.076C419.479 298.527 417.353 293.273 419.125 283.473C421.191 277.865 422.017 270.545 429.161 262.044C431.168 259.683 448.526 250.887 450.887 249.057C463.698 239.258 465.765 238.254 466.001 238.549L457.322 255.61L497.232 244.394C497.232 244.394 517.482 249.175 519.608 265.645C521.024 276.98 523.445 295.87 491.683 327.394Z" fill="#DD6700"/>
<path d="M418.357 302.254C422.077 303.553 426.918 302.903 429.398 301.841C433.176 300.247 428.394 296.764 422.903 291.982C421.191 290.447 419.715 288.499 418.535 286.61C418.18 292.809 418.889 298.063 418.357 302.254Z" fill="#C45400"/>
<path d="M452.304 300.412C457.145 289.373 467.122 290.553 478.576 278.688C478.576 278.688 466.473 293.505 454.665 303.658C442.858 313.812 433.648 324.025 430.755 323.139C450.415 321.368 447.463 311.451 452.304 300.412Z" fill="#DD6700"/>
<path d="M406.609 329.107C432.704 329.284 458.74 336.309 479.935 344.161L441.088 374.444L390.256 355.259L406.609 329.107Z" fill="#1056AC"/>
<path d="M445.335 340.615C474.441 333.177 492.389 308.678 492.389 308.678C491.031 302.775 485.422 289.433 474.441 283.766L442.383 314.227C442.383 314.227 436.066 311.689 426.62 314.463C417.174 317.238 408.614 311.807 408.614 311.807C408.614 311.807 411.92 302.775 409.735 301.122C407.492 299.41 405.189 299.292 405.189 299.292C405.189 299.292 401.529 293.979 399.699 292.621C397.809 291.263 390.843 292.326 389.839 293.152C388.836 293.979 389.721 298.583 389.721 298.583C389.721 298.583 381.397 309.918 384.703 313.401C387.95 316.883 416.229 348.053 445.335 340.615Z" fill="#FFC48E"/>
<path d="M394.153 295.056L389.725 298.539C389.725 298.539 389.312 295.411 390.315 294.584C391.319 293.758 394.153 295.056 394.153 295.056Z" fill="#F2AB70"/>
<path d="M406.962 305.503L405.132 299.245C405.132 299.245 406.608 299.718 407.375 301.312C408.202 302.846 406.962 305.503 406.962 305.503Z" fill="#F2AB70"/>
<path d="M490.268 263.114L472.911 283.362L473.383 283.598L490.623 263.468C490.741 263.35 490.741 263.232 490.623 263.114C490.504 262.996 490.386 262.996 490.268 263.114Z" fill="#C45400"/>
<path d="M319.882 284.715C330.981 286.663 465.765 355.023 465.765 355.023C465.765 355.023 435.833 405.437 394.86 387.019C353.888 368.541 308.783 282.708 319.882 284.715Z" fill="#1056AC"/>
<path d="M451.477 376.754C451.477 376.754 364.572 325.809 331.334 317.426C346.094 343.106 371.185 376.341 394.859 387.026C396.925 387.971 398.992 388.738 400.999 389.328L451.477 376.754Z" fill="#044A8E"/>
<path d="M299.928 328.103C304.356 321.904 309.315 317.654 311.263 315.824C318.938 311.101 345.918 328.752 369.593 347.997C379.157 355.73 388.603 363.817 395.156 371.137C409.148 381.999 411.156 393.039 400.411 394.514C368.058 399.001 328.974 375.447 328.974 375.447L264.741 438.199L239.354 411.811C239.354 411.811 262.143 383.475 284.637 350.122C290.304 341.798 295.559 334.124 299.928 328.103Z" fill="#1056AC"/>
<path d="M327.144 345.058C312.916 348.246 258.364 432.191 258.364 432.191L270.939 437.563L335.114 374.811C335.114 374.811 351.586 405.095 377.031 405.449L391.023 391.694C391.023 391.694 341.372 341.87 327.144 345.058Z" fill="#2170BF"/>
<path d="M313.683 369.491C312.62 374.214 253.582 425.631 251.043 427.815L250.63 427.343C271.884 408.866 312.266 372.915 313.092 369.314C313.565 367.484 313.033 365.005 312.561 362.643C311.793 358.924 311.085 355.441 313.565 354.025C314.037 353.788 314.509 353.729 314.922 353.906C316.339 354.497 317.284 357.448 318.288 360.577C319.173 363.352 320.118 366.244 321.24 366.717C321.476 366.835 321.712 366.776 322.007 366.658C323.601 365.89 323.837 362.112 324.014 358.511C324.251 354.143 324.487 350.01 327.025 350.01C327.498 350.01 327.911 350.187 328.265 350.542C329.682 351.958 329.623 356.032 329.564 360.046C329.505 363.588 329.446 367.602 330.686 367.897C332.044 368.192 333.342 366.421 334.759 364.473C336.353 362.23 338.065 359.928 340.132 360.518C343.792 361.522 371.717 389.975 382.934 404.793L382.521 405.088C371.599 390.625 343.497 361.935 340.014 360.99C338.302 360.518 336.767 362.702 335.232 364.768C333.697 366.835 332.28 368.842 330.627 368.429C328.974 368.074 329.033 364.355 329.092 360.046C329.151 356.327 329.21 352.135 327.97 350.896C327.675 350.66 327.439 350.542 327.084 350.542C325.018 350.542 324.782 354.615 324.605 358.57C324.369 362.525 324.191 366.244 322.302 367.189C321.889 367.366 321.535 367.425 321.121 367.248C319.764 366.658 318.819 363.765 317.874 360.754C316.989 357.862 316.044 354.91 314.804 354.438C314.509 354.32 314.214 354.379 313.919 354.556C311.793 355.796 312.443 359.101 313.151 362.584C313.624 365.005 314.155 367.543 313.683 369.491Z" fill="#3849C9"/>
<path d="M409.559 384.298L409.205 384.653C408.497 383.944 337.356 312.692 312.855 315.171C306.479 317.355 292.31 338.666 285.343 349.646L284.517 350C291.365 339.138 306.006 316.942 312.737 314.699H312.796C323.187 313.577 342.61 324.97 370.594 348.525C391.376 366.057 409.382 384.121 409.559 384.298Z" fill="#3849C9"/>
<path d="M239.354 411.866L264.74 438.195L250.571 448.467L226.307 427.333L239.354 411.866Z" fill="#2170BF"/>
<path d="M279.029 397.475C238.175 438.916 255.296 505.15 255.296 505.15V505.209H554.856C554.856 505.209 592.345 469.672 596.123 408.337C599.902 347.001 565.837 285.135 545.882 271.676C525.927 258.216 521.381 291.688 505.264 311.523C486.726 332.834 469.368 350.484 434.064 366.246C398.759 382.008 319.825 356.034 279.029 397.475Z" fill="#B7B7B7"/>
<path d="M229.26 488.566C243.724 483.135 235.105 468.258 235.105 468.258C225.422 472.036 218.869 478.176 217.57 488.506C222.648 488.802 227.194 489.333 229.26 488.566Z" fill="#97C9F2"/>
<path d="M174.707 491.504C176.419 483.948 171.047 477.514 165.615 475.389C159.593 475.802 155.166 476.274 155.756 480.229C156.642 486.251 162.9 489.32 174.707 491.504Z" fill="#97C9F2"/>
<path d="M224.181 450.12C222.941 449.294 221.76 448.467 220.52 447.641C220.402 447.818 220.225 447.995 220.284 448.113C226.837 452.482 233.214 457.145 239.354 462.104L239.708 461.573C238.763 460.864 237.878 460.097 236.933 459.388C238.704 457.086 240.298 454.666 241.597 452.068L241.066 451.655C239.767 454.194 238.173 456.673 236.402 458.975C235.162 458.031 233.922 457.027 232.623 456.083C234.453 453.78 236.224 451.419 237.878 448.94L237.346 448.526C235.752 450.947 233.981 453.367 232.092 455.669C231.088 454.902 230.025 454.194 229.022 453.426C230.911 451.065 232.682 448.527 234.217 445.87L233.686 445.457C232.151 448.113 230.38 450.652 228.431 453.072C227.192 452.186 226.011 451.301 224.771 450.475C226.719 447.936 228.49 445.221 230.085 442.446L229.553 442.033C227.959 444.866 226.188 447.582 224.181 450.12Z" fill="#97C9F2"/>
<path d="M556.115 505.098C556.115 505.098 580.38 482.016 591.833 440.929C565.443 466.254 526.36 483.787 477.24 475.345C392.284 460.823 396.594 413.007 322.619 426.466C248.644 439.926 256.555 505.098 256.555 505.098H556.115Z" fill="#9E9E9E"/>
<path d="M267.279 410.156C258.542 422.671 252.933 437.311 251.516 452.483C251.339 454.195 253.996 454.136 254.232 452.483C254.409 450.594 254.645 448.764 254.94 446.934C257.361 432.175 263.855 418.185 273.301 406.614C282.747 394.985 295.145 385.658 309.197 380.345C327.085 373.556 346.568 373.32 365.46 373.733C385.651 374.146 405.901 374.795 426.092 374.5C446.342 374.205 466.651 372.965 486.724 370.014C488.437 369.778 487.669 367.239 486.016 367.475C483.359 367.83 480.762 368.184 478.164 368.538C457.796 371.076 437.191 371.903 416.646 371.962C406.314 372.021 395.983 371.844 385.651 371.608C375.615 371.431 365.637 371.017 355.601 371.017C337.181 371.017 318.347 372.67 301.581 380.758C287.825 387.369 276.017 397.7 267.279 410.156Z" fill="#9E9E9E"/>
<path d="M455.55 356.44C440.259 362.166 424.909 367.656 409.5 372.91C408.791 373.146 408.319 373.796 408.496 374.445C408.673 375.094 409.5 375.626 410.149 375.39C418.887 372.438 427.625 369.368 436.303 366.24C451.653 360.749 466.944 355.023 482.117 349.061C497.408 343.099 512.64 336.9 527.754 330.466C528.403 330.17 528.58 329.167 528.226 328.636C527.813 327.986 527.045 327.868 526.396 328.163C518.012 331.764 509.57 335.247 501.127 338.671C486.013 344.811 470.841 350.714 455.55 356.44Z" fill="#9E9E9E"/>
<path d="M481.351 334.424C471.02 342.393 460.511 350.245 449.943 357.919C449.353 358.391 449.058 359.1 449.471 359.808C449.825 360.398 450.711 360.694 451.301 360.28C457.205 355.971 463.109 351.602 469.013 347.175C479.521 339.265 489.971 331.236 500.244 323.031C510.516 314.884 520.73 306.561 530.766 298.119C531.298 297.647 531.239 296.702 530.766 296.23C530.235 295.698 529.408 295.758 528.877 296.23C523.269 300.952 517.601 305.616 511.874 310.28C501.779 318.485 491.624 326.514 481.351 334.424Z" fill="#9E9E9E"/>
<path d="M486.903 479.408C505.618 483.304 528.584 486.315 544.17 472.56C545.469 471.439 543.58 469.55 542.222 470.612C540.392 472.206 538.385 473.623 536.259 474.803C527.522 479.585 517.19 480.353 507.39 479.703C496.645 478.995 485.9 476.634 475.45 473.918C453.606 468.192 432.411 459.337 413.637 446.645C404.368 440.446 396.103 433.008 387.424 425.983C378.981 419.195 369.89 412.937 359.44 409.749C339.19 403.551 316.519 409.1 299.575 421.32C282.513 433.658 270.764 451.958 263.385 471.498C262.735 473.091 265.333 473.8 265.923 472.206C266.868 469.727 267.872 467.306 268.934 464.886C277.436 445.936 290.778 428.345 309.316 418.368C318.703 413.35 329.271 410.281 339.957 409.926C350.761 409.572 361.211 412.17 370.657 417.483C380.221 422.855 388.369 430.234 396.752 437.2C405.313 444.284 414.345 450.777 424.087 456.267C443.569 467.365 465 474.863 486.903 479.408Z" fill="#9E9E9E"/>
<path d="M483.948 313.825L492.804 315.537L496.7 317.013L489.557 325.278C484.184 331.771 478.28 336.73 478.28 336.73L449.824 357.982C445.337 361.937 412.453 373.684 406.726 375.514C395.332 379.174 361.503 379.234 361.503 379.234L361.562 374.688C361.562 370.024 371.539 363 373.901 358.985L373.96 358.926C376.735 354.263 380.926 349.658 381.458 344.227C382.816 330.768 378.447 317.131 368.942 306.918C368.883 306.8 368.824 306.741 368.824 306.741L413.811 328.583L483.948 313.825Z" fill="#DD6700"/>
<path d="M387.008 320.016L378.329 315.294L386.889 320.134V320.016L383.111 324.916L383.052 325.034L383.17 325.093L389.546 328.989V328.753L384.469 332.59L384.233 332.767L384.469 332.945L390.845 337.136L390.904 336.664L384.941 338.612L384.41 338.789L384.882 339.084L391.376 343.452L391.435 342.98L384.174 345.755L383.701 345.932L384.115 346.227L390.727 351.422L390.904 350.89L382.344 350.477H381.694L382.166 350.949L386.771 356.085L386.949 355.672L379.805 356.203H379.274L379.628 356.617L384.882 362.402L385 362.048L375.023 363.642L374.728 363.701L374.905 363.937L378.506 369.25L378.624 369.073L369.001 370.489H368.883L368.942 370.607L372.72 376.275L369.119 370.548L369.06 370.607L378.683 369.309H378.86L378.742 369.132L375.141 363.701L375.023 363.996L385.059 362.461L385.414 362.402L385.177 362.107L379.982 356.262L379.805 356.676L386.949 356.144H387.48L387.126 355.731L382.521 350.595L382.344 351.068L390.904 351.481L391.79 351.54L391.081 350.949L384.469 345.755L384.351 346.286L391.613 343.511L392.144 343.275L391.672 343.039L385.177 338.612L385.118 339.084L391.081 337.136L391.553 336.959L391.14 336.723L384.705 332.59V332.885L389.723 328.989L389.959 328.871L389.723 328.694L383.288 324.857L383.347 325.093L387.008 320.134L387.067 320.075L387.008 320.016Z" fill="#FFE5D2"/>
<path d="M442.27 314.106L412.928 305.665C412.928 305.665 409.504 307.377 398.582 314.638C393.328 318.18 387.955 322.548 387.955 322.548C391.261 326.09 426.979 345.866 445.281 340.553C471.966 332.82 482.416 321.367 491.685 309.738C494.991 305.606 518.607 282.642 519.669 269.714C520.673 257.671 510.636 243.208 496.703 256.786L442.27 314.106Z" fill="#E0750A"/>
<path d="M396.22 323.492L392.028 323.138L396.22 323.787C397.637 323.905 398.995 324.082 400.412 324.259H400.648L400.589 324.023L398.877 318.002L398.582 318.297L405.961 320.54L406.434 320.658L406.316 320.186C405.843 317.884 405.312 315.641 404.781 313.338L404.426 313.693C406.847 314.283 409.327 314.873 411.747 315.464L412.101 315.523L412.042 315.168L411.334 309.147L411.157 309.324L414.699 309.088L418.241 308.793L414.699 308.911L411.157 309.029H410.98V309.206L411.57 315.227L411.865 314.991C409.445 314.401 406.965 313.752 404.544 313.161L404.131 313.043L404.249 313.457C404.781 315.759 405.253 318.002 405.784 320.304L406.139 319.95L398.7 317.766L398.227 317.648L398.345 318.12L400.235 324.082L400.412 323.846C398.995 323.728 397.637 323.61 396.22 323.492Z" fill="#FFE5D2"/>
<path d="M439.196 313.228C461.04 293.038 490.5 263.168 490.5 263.168L462.871 294.632L442.325 314.172L439.196 313.228Z" fill="#C45400"/>
<path d="M487.791 315.465C487.732 315.583 487.555 315.642 487.437 315.642C487.319 315.642 487.26 315.642 487.201 315.524C486.964 315.406 486.964 315.169 487.082 314.992L510.816 287.424C510.934 287.306 511.229 287.247 511.406 287.365C511.642 287.483 511.642 287.719 511.524 287.896L487.791 315.465Z" fill="#C45400"/>
<path d="M403.837 326.026C402.833 326.557 401.771 327.029 400.708 327.442C402.951 326.793 405.077 325.789 407.143 324.668C409.151 323.487 411.04 322.129 412.811 320.595C413.696 319.827 414.464 318.942 415.29 318.115C415.645 317.643 416.058 317.23 416.412 316.757C416.589 316.58 416.766 316.344 416.944 316.108L417.416 315.4C418.833 313.57 419.836 311.385 420.663 309.26C420.368 309.792 420.073 310.264 419.836 310.795L419.423 311.563C419.246 311.799 419.128 312.035 418.951 312.271L418.065 313.747C417.77 314.278 417.416 314.691 417.062 315.164L416.53 315.872C416.353 316.108 416.176 316.285 415.999 316.521C415.645 316.935 415.231 317.407 414.877 317.82C414.051 318.587 413.283 319.473 412.398 320.181C410.685 321.716 408.796 323.074 406.848 324.314L405.372 325.199C404.841 325.494 404.368 325.789 403.837 326.026Z" fill="#FFE5D2"/>
<path d="M460.101 208.321C460.219 208.321 460.337 208.38 460.396 208.439C460.514 208.557 460.514 208.616 460.514 208.675C460.514 208.911 460.337 209.147 460.16 209.147C459.806 209.206 459.511 209.206 459.215 209.206C458.92 209.206 458.684 209.147 458.389 209.147C455.201 208.793 453.607 206.668 453.548 206.55C453.43 206.373 453.489 206.137 453.607 205.96C453.666 205.901 453.784 205.842 453.902 205.842C454.02 205.842 454.138 205.901 454.197 206.019C454.197 206.078 456.204 208.734 460.101 208.321Z" fill="#191919"/>
<path d="M488.202 191.904C486.962 189.897 485.309 188.185 483.479 186.827C485.014 188.539 486.431 190.31 487.375 192.377C487.848 193.38 487.612 193.557 487.612 194.561C487.612 194.679 487.612 194.856 487.612 194.974C487.73 196.686 487.198 198.339 486.077 199.638C485.014 200.818 483.833 201.999 482.77 203.298C482.003 204.183 481.294 205.187 480.822 206.426C480.35 207.666 480.291 209.142 480.704 210.382C481.117 211.621 481.885 212.684 482.593 213.569C483.243 214.455 483.892 215.34 484.483 216.285C485.663 218.115 486.667 220.181 486.844 222.188C486.903 223.192 486.608 224.077 485.84 224.667C485.486 224.963 485.014 225.199 484.483 225.376C484.01 225.553 483.479 225.671 483.007 225.671C482.534 225.671 482.239 225.494 482.121 225.022C482.062 224.549 482.121 224.018 482.239 223.487C482.416 223.014 482.711 222.542 483.243 222.424C483.479 222.365 483.774 222.365 483.951 222.542C484.187 222.719 484.246 223.014 484.246 223.31C484.305 223.014 484.305 222.719 484.069 222.483C483.833 222.247 483.479 222.129 483.184 222.188C482.534 222.247 482.062 222.778 481.826 223.369C481.59 223.959 481.413 224.549 481.472 225.199C481.531 225.553 481.649 225.907 481.944 226.202C482.239 226.497 482.593 226.615 482.948 226.675C483.656 226.793 484.246 226.615 484.837 226.497C485.427 226.379 486.077 226.143 486.608 225.789C487.139 225.435 487.612 224.904 487.907 224.254C488.202 223.605 488.32 222.956 488.32 222.306C488.32 221.007 487.966 219.827 487.553 218.705C487.139 217.583 486.608 216.521 486.018 215.517C485.427 214.455 484.778 213.51 484.069 212.566C483.361 211.68 482.83 210.854 482.534 209.909C482.239 209.024 482.239 208.079 482.593 207.135C482.889 206.19 483.538 205.305 484.187 204.419C485.545 202.648 487.139 200.995 488.497 199.047C489.206 197.926 489.501 195.741 489.383 194.502C489.265 193.203 488.792 192.908 488.202 191.904Z" fill="black"/>
</g>
</g>
<mask id="mask6_61_107" style="mask-type:luminance" maskUnits="userSpaceOnUse" x="624" y="314" width="159" height="199">
<path d="M624.396 314.269H782.873V512.346H624.396V314.269Z" fill="white"/>
</mask>
<g mask="url(#mask6_61_107)">
<mask id="mask7_61_107" style="mask-type:luminance" maskUnits="userSpaceOnUse" x="628" y="315" width="144" height="198">
<path d="M628.401 326.18L755.912 315.377L771.663 501.222L644.153 512.025L628.401 326.18Z" fill="white"/>
</mask>
<g mask="url(#mask7_61_107)">
<path d="M693.866 374.861C695.045 367.661 694.827 360.162 693.148 353.025C690.247 340.622 682.541 327.135 669.22 324.146C663.017 322.762 655.532 323.158 650.037 326.606C644.714 329.981 641.761 335.959 640.722 342.013C639.478 349.159 640.437 356.953 642.166 363.967C643.725 370.398 646.405 376.674 651.107 381.466C660.972 391.549 676.001 391.469 688.234 397.115C688.328 397.525 689.755 397.464 689.315 397.203C688.475 392.919 689.98 388.853 691.361 384.739C692.463 381.543 693.317 378.249 693.866 374.861Z" fill="#1E874B"/>
<path d="M700.29 423.296C702.336 428.432 704.388 433.628 706.434 438.765C708.267 443.502 710.521 448.263 711.836 453.223C712 453.746 711.121 453.94 710.903 453.481C708.344 448.627 706.633 443.223 704.532 438.15C702.58 433.423 700.633 428.756 698.681 424.029C694.569 414.234 690.339 404.449 685.882 394.804C684.713 392.277 683.539 389.692 682.311 387.171C673.197 380.306 663.951 374.705 652.528 372.272C652.222 372.179 652.241 371.7 652.601 371.729C662.468 373.399 672.818 377.236 680.712 383.786C677.671 377.481 674.522 371.304 671.255 365.137C664.864 360.13 658.208 356.219 650.418 353.716C650.112 353.623 650.314 353.188 650.62 353.282C657.397 355.094 664.096 358.106 669.765 362.34C665.176 353.958 660.415 345.65 655.318 337.61C655.105 337.21 655.662 336.745 655.934 337.14C659.125 341.702 662.208 346.393 665.113 351.099C664.341 346.213 664.501 341.068 664.988 336.254C665.022 335.952 665.447 336.036 665.408 336.278C664.942 342.045 665.636 347.415 666.291 353.028C670.165 359.322 673.754 365.76 677.17 372.273C676.617 365.041 679.395 356.989 681.484 350.667C681.583 350.42 682.007 350.503 681.973 350.805C680.982 355.304 679.932 359.808 679.366 364.39C678.912 368.187 679.056 371.994 678.957 375.761C681.953 381.533 684.775 387.38 687.484 393.296C692.021 403.173 696.212 413.2 700.29 423.296Z" fill="#3FAA6B"/>
<path d="M675.574 354.75C675.969 350.958 677.094 347.342 678.896 343.968C679.108 343.651 679.602 343.848 679.45 344.159C678.013 347.622 676.764 351.188 675.757 354.794C675.707 354.917 675.584 354.868 675.574 354.75Z" fill="#3FAA6B"/>
<path d="M649.492 367.405C652.963 367.529 657.048 368.555 660.215 370.018C660.526 370.17 660.329 370.664 660.028 370.63C658.26 370.183 656.531 369.494 654.758 368.988C652.984 368.482 651.167 368.158 649.448 367.588C649.324 367.539 649.373 367.415 649.492 367.405Z" fill="#3FAA6B"/>
<path d="M648.324 339.51C649.549 339.884 650.75 340.677 651.877 341.297C652.065 341.401 651.863 341.836 651.67 341.673C650.549 341.112 649.19 340.57 648.172 339.821C647.984 339.718 648.142 339.466 648.324 339.51Z" fill="#3FAA6B"/>
<path d="M711.162 398.632C719.309 395.495 727.525 392.472 735.727 389.272C742.137 386.76 747.593 383.553 751.579 377.786C755.63 372.073 757.551 365.168 758.217 358.25C758.957 350.789 759.058 342.129 755.963 335.172C753.679 330.056 749.318 325.771 743.585 325.004C737.13 324.178 729.93 326.519 724.117 329.04C711.579 334.577 701.557 345.151 697.917 358.526C693.948 372.943 710.471 398.929 711.162 398.632Z" fill="#1E874B"/>
<path d="M729.816 370.252C735.347 367.934 740.631 365.518 745.737 362.4C745.91 362.326 746.048 362.553 745.925 362.504C742.163 365.984 737.466 368.292 732.867 370.352C728.155 372.481 723.404 374.853 718.553 376.755C716.065 384.006 713.883 391.351 712.072 398.843C707.433 418.03 705.047 437.742 704.448 457.422C704.429 457.901 703.772 457.897 703.732 457.423C703.057 437.493 705.26 417.736 709.938 398.307C710.871 394.529 711.863 390.746 712.973 386.953C708.586 378.136 706.181 367.362 706.967 357.63C706.952 357.452 707.189 357.432 707.204 357.61C707.074 363.11 708.123 368.45 709.76 373.681C710.901 377.284 712.451 380.792 713.71 384.385C715.627 378.137 717.781 371.868 720.246 365.753C718.503 359.278 717.852 352.293 718.361 345.627C718.346 345.449 718.583 345.429 718.598 345.607C718.834 351.911 719.637 357.869 721.043 363.895C724.01 356.663 727.406 349.574 731.253 342.864C731.563 342.301 732.379 342.769 732.133 343.386C731.178 345.496 730.228 347.664 729.278 349.833C734.014 347.284 738.83 344.967 743.007 341.451C743.229 341.253 743.55 341.524 743.333 341.781C739.567 345.919 734.031 348.893 728.771 350.89C725.272 358.883 722.079 366.97 719.192 375.15C722.418 373.086 726.356 371.679 729.816 370.252Z" fill="#3FAA6B"/>
<path d="M738.315 361.372C743.255 359.104 747.896 356.145 752.895 353.872C753.068 353.798 753.265 354.02 753.098 354.153C749.015 358.079 743.824 360.19 738.469 361.777C738.237 361.856 738.084 361.452 738.315 361.372Z" fill="#3FAA6B"/>
<path d="M709.637 346.199C709.676 345.957 710.1 346.04 710.066 346.342C709.349 351.235 710.047 355.949 710.223 360.827C710.238 361.005 709.942 361.03 709.868 360.857C708.099 356.174 708.619 351.058 709.637 346.199Z" fill="#3FAA6B"/>
<path d="M728.726 341.89C728.436 339.17 728.762 335.98 730.294 333.643C730.56 333.262 731.059 333.518 730.912 333.889C730.308 336.624 729.507 339.139 729.086 341.919C729.047 342.161 728.741 342.067 728.726 341.89Z" fill="#3FAA6B"/>
<path d="M656.091 426.877C646.844 427.601 640.124 417.311 636.973 409.703C635.477 406.13 634.068 401.476 635.109 397.57C636.042 393.792 638.939 392.77 642.484 392.351C648.205 391.568 654.081 391.905 659.815 392.673C664.822 393.322 670.229 393.759 674.775 395.999C691.036 404.108 693.971 423.251 693.438 423.296C687.009 423.483 680.547 423.97 674.099 424.636C668.062 425.207 662.079 426.43 656.091 426.877Z" fill="#1E874B"/>
<path d="M654.427 401.718C650.594 400.849 646.648 400.05 642.835 399.418C642.169 399.296 642.214 399.829 642.782 400.198C650.122 402.321 657.476 403.906 664.757 406.034C658.33 406.936 652.226 409.541 645.509 408.44C645.327 408.395 645.293 408.697 645.475 408.741C652.479 410.415 659.669 407.956 666.59 406.535C666.96 406.682 667.266 406.776 667.632 406.864C673.95 408.894 679.568 411.819 684.565 415.871C673.464 414.425 662.457 420.429 651.279 417.378C651.037 417.339 650.89 417.709 651.137 417.808C656.22 420.062 662.199 419.496 667.555 418.624C670.788 418.052 674.011 417.362 677.324 417.021C680.167 416.78 682.982 416.9 685.85 416.955C686.686 417.66 687.526 418.424 688.307 419.193C699.763 430.454 707.179 444.026 711.412 459.479C711.502 459.829 712.084 459.66 712.054 459.305C710.718 443.547 701.346 428.709 690.113 417.967C687.186 415.112 684.057 412.692 680.667 410.712C677.85 404.925 673.805 400.852 667.472 398.644C667.166 398.551 667.018 398.921 667.27 399.079C670.097 400.748 673.007 401.994 675.306 404.484C676.755 406.091 677.809 407.971 678.977 409.781C676.037 408.181 673.004 406.886 669.694 405.854C665.036 404.399 660.215 403.137 655.405 401.993C653.006 399.034 649.215 396.551 645.664 395.479C645.481 395.435 645.442 395.677 645.571 395.786C647.448 396.82 649.316 397.736 651.031 398.963C652.232 399.756 653.329 400.737 654.427 401.718Z" fill="#3FAA6B"/>
<path d="M650.533 406.41C647.141 406.518 643.759 406.744 640.337 406.496C640.16 406.511 640.121 406.754 640.239 406.744C643.578 407.417 647.291 407.58 650.543 406.529C650.662 406.519 650.593 406.405 650.533 406.41Z" fill="#3FAA6B"/>
<path d="M668.026 400.922C666.434 399.744 664.586 398.349 662.694 397.853C662.393 397.819 662.191 398.254 662.502 398.406C663.263 398.938 664.187 399.278 665.062 399.741C666 400.258 666.939 400.775 667.819 401.297C668.007 401.401 668.219 401.084 668.026 400.922Z" fill="#3FAA6B"/>
<path d="M719.894 418.595C719.736 418.847 719.36 418.64 719.459 418.393C722.768 408.864 729.423 400.783 738.061 395.696C743.68 392.296 754.979 386.924 759.577 394.708C763.472 401.24 760.357 412.362 754.656 416.903C750.405 420.246 744.46 420.511 739.325 420.469C732.936 420.413 726.541 419.583 720.146 418.752C720.022 418.703 719.958 418.649 719.894 418.595Z" fill="#1E874B"/>
<path d="M725.8 412.961C721.918 415.736 718.363 418.841 715.213 422.509C706.197 432.998 700.709 448.499 699.613 462.314C699.579 462.615 700.003 462.699 700.097 462.393C702.18 455.295 703.36 448.095 706.056 441.184C708.555 434.767 711.983 428.749 716.434 423.539C718.716 420.9 721.256 418.477 723.934 416.281C731.619 414.735 739.325 417.662 747.03 415.637C747.208 415.622 747.123 415.331 746.946 415.346C742.335 415.856 737.886 415.457 733.308 414.95C730.656 414.638 728.068 414.38 725.551 414.951C728.407 412.74 731.455 410.692 734.578 408.816C741.132 410.111 748.393 409.197 754.577 406.824C754.749 406.75 754.67 406.518 754.492 406.533C747.953 408.22 742.132 408.534 735.599 408.193C740.483 405.273 745.634 402.689 750.617 400.238C750.844 400.1 750.696 399.754 750.464 399.834C747.641 401.027 744.824 402.28 742.011 403.592C743.666 400.588 745.726 398.147 748.271 395.783C748.325 395.719 748.256 395.605 748.202 395.67C745.197 397.535 742.718 400.669 741.266 403.954C736.564 406.202 731.941 408.682 727.655 411.61C730.182 407.638 732.853 403.951 736.453 400.663C736.675 400.465 736.467 400.124 736.245 400.322C732.063 403.779 728.188 408.045 725.8 412.961Z" fill="#3FAA6B"/>
<path d="M739.087 399.368C738.377 400.144 737.672 400.98 737.278 401.968C737.229 402.091 737.358 402.2 737.466 402.071C738.063 401.364 738.585 400.485 739.235 399.714C739.886 398.943 740.73 398.334 741.321 397.568C741.375 397.504 741.311 397.45 741.252 397.455C740.447 397.821 739.688 398.721 739.087 399.368Z" fill="#3FAA6B"/>
<path d="M754.057 404.249C752.892 404.586 751.707 404.687 750.547 405.083C750.37 405.098 750.336 405.4 750.578 405.439C752.805 405.668 755.746 404.464 757.546 403.178C757.659 403.108 757.58 402.876 757.407 402.951C756.312 403.402 755.221 403.912 754.057 404.249Z" fill="#3FAA6B"/>
</g>
<mask id="mask8_61_107" style="mask-type:luminance" maskUnits="userSpaceOnUse" x="639" y="320" width="129" height="187">
<path d="M639.65 320.053H767.62V506.562H639.65V320.053Z" fill="white"/>
</mask>
<g mask="url(#mask8_61_107)">
<path d="M683.587 459.701L682.339 445.849H731.092L729.606 459.701L724.374 506.548H687.69L683.587 459.701Z" fill="#DD6700"/>
<path d="M683.587 459.701L682.339 445.849H731.092L729.606 459.701H683.587Z" fill="#A84800"/>
<path d="M678.749 453.336H734.756V442.1H678.749V453.336Z" fill="#DD6700"/>
</g>
</g>
<mask id="mask9_61_107" style="mask-type:luminance" maskUnits="userSpaceOnUse" x="468" y="24" width="116" height="116">
<path d="M468.635 24.8983H583.015V139.268H468.635V24.8983Z" fill="white"/>
</mask>
<g mask="url(#mask9_61_107)">
<path d="M525.805 26.265C556.603 26.265 581.609 51.2682 581.609 82.0633C581.609 112.858 556.603 137.862 525.805 137.862C495.007 137.862 470.002 112.858 470.002 82.0633C470.002 51.2682 495.007 26.265 525.805 26.265Z" fill="#7642F9"/>
<path d="M525.805 26.265C556.603 26.265 581.609 51.2682 581.609 82.0633C581.609 112.858 556.603 137.862 525.805 137.862C495.007 137.862 470.002 112.858 470.002 82.0633C470.002 51.2682 495.007 26.265 525.805 26.265Z" stroke="white" stroke-width="2"/>
<path d="M535.935 57.7217C536.352 58.1378 537.065 58.1378 537.481 57.7217C537.779 57.3055 537.779 56.711 537.481 56.176C534.092 52.9063 528.682 52.9063 525.412 56.176C524.996 56.5922 524.996 57.3055 525.412 57.7217C525.828 58.1378 526.541 58.1378 526.958 57.7217C529.395 55.2842 533.498 55.2842 535.935 57.7217ZM500.619 93.035C503.473 95.8886 508.289 95.8886 511.142 93.035L524.401 79.7777L513.877 69.255L500.619 82.5123C497.765 85.366 497.765 90.1814 500.619 93.035ZM497.468 79.4804L523.093 53.8574C527.671 49.3392 535.044 49.3392 539.622 54.0358C544.2 58.6134 544.2 66.1042 539.622 70.6818L514.115 96.1264C509.537 100.704 502.046 100.704 497.468 96.1264C492.89 91.5488 492.89 84.058 497.468 79.4804Z" fill="white"/>
<path d="M541.527 113.547C533.857 112.952 527.793 106.532 527.793 98.7436C527.793 90.9557 533.857 84.5351 541.527 84V113.547Z" fill="white"/>
<path d="M543.843 113.666V84C551.513 84.535 557.636 90.9556 557.577 98.8625C557.577 106.65 551.513 113.071 543.843 113.666Z" fill="white"/>
</g>
<mask id="mask10_61_107" style="mask-type:luminance" maskUnits="userSpaceOnUse" x="144" y="111" width="116" height="116">
<path d="M144.57 111.597H259.545V226.56H144.57V111.597Z" fill="white"/>
</mask>
<g mask="url(#mask10_61_107)">
<path d="M202.057 113.28C232.855 113.28 257.861 138.283 257.861 169.078C257.861 199.874 232.855 224.877 202.057 224.877C171.259 224.877 146.254 199.874 146.254 169.078C146.254 138.283 171.259 113.28 202.057 113.28Z" fill="#7642F9"/>
<path d="M202.057 113.28C232.855 113.28 257.861 138.283 257.861 169.078C257.861 199.874 232.855 224.877 202.057 224.877C171.259 224.877 146.254 199.874 146.254 169.078C146.254 138.283 171.259 113.28 202.057 113.28Z" stroke="white" stroke-width="2"/>
<path d="M215.739 175.376C216.393 172.166 218.949 169.491 222.16 168.718C227.808 167.41 232.862 171.69 232.624 177.041C232.624 180.965 230.008 184.353 226.203 185.364V188.871C226.203 201.891 216.809 203.853 211.22 203.853H207.058C198.794 203.853 192.076 197.135 192.076 188.871V180.727C180.006 178.349 174.477 171.334 171.92 165.805L171.801 165.508L173.525 164.735C170.315 157.541 170.791 149.575 171.861 146.186C173.763 140.182 177.866 137.982 180.244 137.15C180.779 135.426 182.087 134.475 183.99 134.356C184.584 134.177 185.179 134.058 185.773 134.058C188.984 134.058 191.6 136.674 191.6 139.885C191.6 143.095 188.984 145.711 185.773 145.711C183.217 145.711 181.136 144.106 180.303 141.906C178.817 142.798 177.033 144.403 176.023 147.554C175.309 149.872 174.715 156.649 177.509 162.951L179.233 162.178L179.352 162.416C181.968 168.123 187.022 171.631 194.335 172.879C201.648 171.631 206.702 168.123 209.318 162.416L209.437 162.178L211.161 162.951C213.955 156.59 213.361 149.813 212.647 147.494C211.636 144.165 209.615 142.5 208.069 141.728C207.475 142.679 206.404 143.689 204.264 143.689C201.232 143.689 197.545 141.609 197.545 139.052C197.545 136.496 201.232 134.415 204.264 134.415C206.345 134.415 207.831 135.366 208.426 137.209C210.804 138.042 214.906 140.301 216.809 146.246C217.879 149.575 218.355 157.601 215.144 164.794L216.869 165.567L216.75 165.864C214.193 171.393 208.664 178.468 196.594 180.786V188.931C196.594 194.816 201.351 199.572 207.237 199.572H211.399C217.285 199.572 222.041 194.816 222.041 188.931V185.423C217.701 184.294 214.847 180.013 215.739 175.376Z" fill="white"/>
</g>
<mask id="mask11_61_107" style="mask-type:luminance" maskUnits="userSpaceOnUse" x="306" y="32" width="75" height="75">
<path d="M306.454 32.445H380.066V106.05H306.454V32.445Z" fill="white"/>
</mask>
<g mask="url(#mask11_61_107)">
<path d="M343.261 32.9788C363.279 32.9788 379.533 49.2309 379.533 69.2477C379.533 89.2645 363.279 105.517 343.261 105.517C323.242 105.517 306.988 89.2645 306.988 69.2477C306.988 49.2309 323.242 32.9788 343.261 32.9788Z" fill="#7642F9"/>
<path d="M343.261 32.9788C363.279 32.9788 379.533 49.2309 379.533 69.2477C379.533 89.2645 363.279 105.517 343.261 105.517C323.242 105.517 306.988 89.2645 306.988 69.2477C306.988 49.2309 323.242 32.9788 343.261 32.9788Z" stroke="white" stroke-width="1.3"/>
<path d="M344.865 53.0218L332.498 56.2321L336.006 69.7867L336.422 69.5489C338.86 68.241 342.189 67.7654 344.924 68.4788L349.086 69.1922L344.865 53.0218ZM349.443 47.4929L350.156 50.1682C350.335 51.0005 349.978 51.6544 349.265 51.7733L347.065 52.3678L353.783 77.9313C355.091 83.0441 352.356 88.3946 347.778 89.5836C343.2 90.7726 338.206 87.5029 336.838 82.3901L330.12 56.8266L327.682 57.4805C326.969 57.7183 326.374 57.3022 326.136 56.4699L325.423 53.7946C325.185 52.9623 325.542 52.3084 326.255 52.13L347.897 46.4823C348.611 46.2445 349.205 46.6606 349.443 47.4929Z" fill="white"/>
</g>
<mask id="mask12_61_107" style="mask-type:luminance" maskUnits="userSpaceOnUse" x="588" y="197" width="93" height="93">
<path d="M588.086 197.106H680.359V289.371H588.086V197.106Z" fill="white"/>
</mask>
<g mask="url(#mask12_61_107)">
<path d="M634.202 197.464C659.457 197.464 679.961 217.967 679.961 243.219C679.961 268.471 659.457 288.973 634.202 288.973C608.948 288.973 588.443 268.471 588.443 243.219C588.443 217.967 608.948 197.464 634.202 197.464Z" fill="#7642F9"/>
<path d="M634.202 197.464C659.457 197.464 679.961 217.967 679.961 243.219C679.961 268.471 659.457 288.973 634.202 288.973C608.948 288.973 588.443 268.471 588.443 243.219C588.443 217.967 608.948 197.464 634.202 197.464Z" stroke="white" stroke-width="1.64"/>
<path d="M642.375 228.433V219.753L653.018 230.514H644.456C643.326 230.514 642.375 229.563 642.375 228.433Z" fill="white"/>
<path d="M620.014 251.09H644.688V247.998H620.014V251.09ZM620.014 259.175H639.753V256.084H620.014V259.175ZM624.83 234.325H620.014V237.535H624.83V242.35H628.04V237.535H632.856V234.325H628.04V229.509H624.83V234.325ZM639.337 230.282C639.337 232.244 640.229 233.552 642.488 233.79H653.487V264.407C653.487 265.893 652.298 267.141 650.753 267.141H617.755C616.268 267.141 615.02 265.952 615.02 264.407V222.018C615.02 220.532 616.209 219.284 617.755 219.284H639.337V230.282Z" fill="white"/>
</g>
</g>
</g>
<defs>
<clipPath id="clip0_61_107">
<rect width="832" height="515" fill="white"/>
</clipPath>
</defs>
</svg>
