<svg width="149" height="119" viewBox="0 0 149 119" fill="none" xmlns="http://www.w3.org/2000/svg">
<rect width="124" height="119" rx="33" fill="#7642F9"/>
<path d="M15.791 73.1465C15.0098 73.0488 13.5042 73 11.2744 73H9.32129V40.4316C10.363 40.4967 11.5104 40.5293 12.7637 40.5293C14.0169 40.5293 14.904 40.4642 15.4248 40.334L23.6279 54.2744L31.5137 40.334C32.0345 40.4642 33.0273 40.5293 34.4922 40.5293C35.957 40.5293 37.2103 40.4967 38.252 40.4316V73H36.2988C34.069 73 32.5635 73.0488 31.7822 73.1465V51.2715L23.7988 65.5537L15.791 52.4189V73.1465ZM44.9658 60.4512C44.9658 58.5469 45.2913 56.7809 45.9424 55.1533C46.5934 53.5257 47.513 52.1016 48.7012 50.8809C51.2402 48.293 54.5605 46.999 58.6621 46.999C62.1289 46.999 64.9121 48.1465 67.0117 50.4414C69.0788 52.6549 70.1123 55.4382 70.1123 58.791C70.1123 60.0768 70.0146 60.9557 69.8193 61.4277C68.1917 61.8835 64.8796 62.1113 59.8828 62.1113H51.2891C51.7122 63.8529 52.6969 65.2119 54.2432 66.1885C55.7894 67.1488 57.7995 67.6289 60.2734 67.6289C62.8613 67.6289 65.083 67.165 66.9385 66.2373C67.4268 65.9932 67.793 65.7653 68.0371 65.5537C68.0046 66.2373 67.9639 66.9372 67.915 67.6533L67.6465 71.4619C66.4095 72.3083 64.4076 72.8942 61.6406 73.2197C60.8268 73.3174 60.0456 73.3662 59.2969 73.3662C55.1628 73.3662 51.7448 72.1618 49.043 69.7529C46.3249 67.3278 44.9658 64.2272 44.9658 60.4512ZM63.6182 57.375C62.9508 53.8757 61.0465 52.126 57.9053 52.126C55.4313 52.126 53.5514 53.1921 52.2656 55.3242C51.875 55.9753 51.5739 56.6914 51.3623 57.4727C51.7529 57.4889 52.2331 57.5052 52.8027 57.5215H54.6094C55.2116 57.5378 55.7894 57.5459 56.3428 57.5459H57.7344C58.5645 57.5459 59.3783 57.5378 60.1758 57.5215L62.1777 57.4482C62.7148 57.432 63.195 57.4076 63.6182 57.375ZM92.9395 71.6328C90.8724 72.7884 88.8053 73.3662 86.7383 73.3662C84.6712 73.3662 82.8646 73.0407 81.3184 72.3896C79.7721 71.7386 78.4538 70.8434 77.3633 69.7041C75.1172 67.3604 73.9941 64.3167 73.9941 60.5732C73.9941 56.6995 75.2962 53.4769 77.9004 50.9053C80.5208 48.3011 83.8737 46.999 87.959 46.999C89.2122 46.999 90.4411 47.1618 91.6455 47.4873V36.623H97.627V62.7217C97.627 64.8864 97.7246 66.3024 97.9199 66.9697C98.1315 67.637 98.3594 68.1253 98.6035 68.4346C98.8639 68.7438 99.1895 69.0368 99.5801 69.3135L94.9902 73.3662C94.1439 72.9105 93.4603 72.3327 92.9395 71.6328ZM87.8857 67.751C89.2529 67.751 90.5062 67.4906 91.6455 66.9697V53.4443C90.5062 52.9723 89.2692 52.7363 87.9346 52.7363C86.5999 52.7363 85.4525 52.9154 84.4922 53.2734C83.5482 53.6315 82.7344 54.1279 82.0508 54.7627C80.6185 56.0973 79.9023 57.8307 79.9023 59.9629C79.9023 62.2904 80.5534 64.1458 81.8555 65.5293C83.2552 67.0104 85.2653 67.751 87.8857 67.751Z" fill="white"/>
<rect x="110" y="42" width="6" height="31" fill="white"/>
<circle cx="112.5" cy="33.5" r="4.5" fill="#B8FB5F"/>
<rect x="138.199" y="4" width="27" height="5.4" rx="2.7" transform="rotate(89.3894 138.199 4)" fill="#FFFFFF"/>
<rect x="122" y="15" width="27" height="5" rx="2.5" fill="#A0FA2A"/>
</svg>
