<svg  viewBox="0 0 217 178" fill="none" xmlns="http://www.w3.org/2000/svg">
<path d="M86.9213 8.04896C86.9213 3.60528 83.316 0 78.8723 0H24.5709C20.1273 0 16.522 3.60528 16.522 8.04896V25.3236H86.9216L86.9213 8.04896Z" fill="#7642F9"/>
<path d="M91.3336 55.865C84.1925 52.2917 81.807 43.9525 81.807 36.8063C81.807 36.3441 81.807 35.6618 81.807 34.786C81.807 34.4634 81.807 34.1625 81.807 33.7756H21.6379C21.6379 34.1625 21.6379 34.4634 21.6379 34.786C21.6379 34.8936 21.6379 35.4631 21.6379 36.8063C21.6379 43.9525 19.252 52.2917 12.1113 55.865C3.57846 60.1261 0 66.477 0 81.6457C0 87.0564 0 137.618 0 146.285C0 160.906 10.2897 176.069 30.8743 176.069H72.5703C93.1548 176.069 103.445 160.906 103.445 146.285C103.445 137.618 103.445 87.0567 103.445 81.6457C103.445 66.4773 99.8661 60.1261 91.3336 55.865ZM86.5083 139.864H16.9363V83.0642H86.5086V139.864H86.5083Z" fill="#7642F9"/>
<path d="M45.7689 133.056H57.6704V118.925H71.7965V107.034H57.6704V92.9023H45.7689V107.034H31.6479V118.925H45.7689V133.056Z" fill="#7642F9"/>
<g clip-path="url(#clip0_108_182)">
<path d="M206.136 106.729L155.499 56.6639L155.51 56.6875C149.803 50.9675 142.282 48.0954 134.796 48.1081C127.322 48.0954 119.8 50.9675 114.092 56.6875C108.374 62.3931 105.503 69.903 105.514 77.3913C105.503 84.8759 108.374 92.3966 114.092 98.1043L126.043 109.926C125.683 109.916 125.322 109.916 124.962 109.916C115.162 109.916 106.259 112.38 99.597 116.552C96.2721 118.644 93.4938 121.167 91.5178 124.108C89.5309 127.038 88.3677 130.409 88.3677 133.966V153.937C88.3677 157.493 89.5309 160.865 91.5178 163.795C94.4942 168.2 99.2243 171.697 104.991 174.153C110.768 176.605 117.615 177.987 124.962 178C134.75 177.987 143.654 175.524 150.314 171.35C153.65 169.27 156.417 166.736 158.405 163.795C160.382 160.865 161.544 157.493 161.544 153.937V145.021L164.729 148.173L164.718 148.148C170.424 153.866 177.946 156.74 185.431 156.727C192.907 156.74 200.428 153.866 206.136 148.161C211.854 142.44 214.714 134.932 214.714 127.444C214.715 119.958 211.855 112.447 206.136 106.729ZM122.486 85.829C117.639 80.971 117.639 72.9844 122.555 68.068C124.926 65.6962 128.088 64.3831 131.461 64.3831L122.486 85.829ZM94.1798 133.966C94.1907 131.676 94.9001 129.492 96.3317 127.351C97.5875 125.481 99.4346 123.69 101.747 122.098L146.223 148.126C145.212 148.682 144.143 149.206 143.014 149.683C137.911 151.856 131.681 153.135 124.963 153.135C115.987 153.148 107.897 150.845 102.19 147.253C99.3311 145.452 97.0758 143.346 95.5642 141.092C95.0048 140.254 94.5411 139.407 94.1801 138.535L94.1798 133.966ZM155.732 153.937C155.732 156.227 155.011 158.413 153.582 160.55C151.441 163.737 147.641 166.689 142.654 168.806C137.679 170.921 131.564 172.189 124.963 172.189C116.151 172.189 108.211 169.921 102.69 166.434C99.923 164.701 97.7602 162.667 96.3317 160.55C94.9003 158.413 94.1907 156.227 94.1798 153.937V145.696C96.9925 148.81 100.829 151.404 105.351 153.321C111 155.718 117.731 157.089 124.963 157.089C134.599 157.089 143.34 154.657 149.826 150.588C152.104 149.171 154.092 147.533 155.732 145.707V153.937ZM155.732 138.535C155.663 138.71 155.592 138.872 155.499 139.046C155.186 139.745 154.802 140.418 154.348 141.092C153.372 142.556 152.058 143.941 150.501 145.23L106.467 119.47C106.734 119.354 106.991 119.213 107.258 119.11C112.233 116.994 118.348 115.727 124.963 115.727C127.566 115.727 130.09 115.925 132.495 116.298C138.238 117.169 143.329 119.028 147.223 121.469C147.699 121.76 148.153 122.074 148.582 122.389C150.687 123.888 152.349 125.55 153.523 127.284C153.547 127.305 153.57 127.329 153.582 127.351C155.011 129.491 155.732 131.676 155.732 133.966V138.535H155.732ZM201.207 143.218C196.837 147.58 191.151 149.752 185.432 149.752C179.701 149.752 174.018 147.589 169.646 143.218L169.634 143.207L161.544 135.21V133.966C161.544 130.408 160.382 127.038 158.405 124.108C155.918 120.447 152.233 117.413 147.746 115.088C148.304 113.635 149.012 112.053 149.885 110.429C152.349 105.8 156.046 100.778 160.94 96.92C165.81 93.0715 171.798 90.3285 179.202 89.9084L201.196 111.658H201.207C205.566 116.029 207.74 121.725 207.74 127.444C207.74 133.164 205.566 138.861 201.207 143.218Z" fill="#7642F9"/>
</g>
<defs>
<clipPath id="clip0_108_182">
<rect width="129.892" height="129.892" fill="white" transform="translate(86.5952 48.108)"/>
</clipPath>
</defs>
</svg>
