<svg viewBox="0 0 309 276" fill="none" xmlns="http://www.w3.org/2000/svg">
<path fill-rule="evenodd" clip-rule="evenodd" d="M140.787 66.9706H80.7834C69.1321 66.9706 62.1069 75.1775 62.1069 84.663V183.694C62.1069 193.143 71.5313 200.814 83.1579 200.814H138.4C150.039 200.814 159.451 193.143 159.451 183.694V84.663C159.463 75.1775 152.438 66.9706 140.787 66.9706ZM147.886 179.518C147.886 184.827 141.426 189.161 133.491 189.161H87.8455C79.8975 189.161 73.4629 184.827 73.4629 179.518V98.3128C73.4629 95.634 75.1977 83.5306 111.099 94.3068C147.024 105.132 147.886 95.6827 147.886 98.3128V179.518Z" fill="#7642F9"/>
<path fill-rule="evenodd" clip-rule="evenodd" d="M135.115 42.1063L119.465 30.3438V14.4048C119.465 9.75337 115.38 5.99084 110.348 5.99084C105.328 5.99084 101.256 9.76555 101.256 14.4048V30.0394L86.7256 42.0941L86.3442 42.0454V54.7941H135.127V42.0575L135.115 42.1063Z" fill="#7642F9"/>
<path d="M199.949 194.452L200.089 194.607C203.117 197.945 206.919 198.972 209.897 197.66C212.875 196.348 214.683 192.85 214.263 188.362L214.244 188.154L193.079 140.112L192.938 139.957C189.91 136.618 186.109 135.592 183.13 136.904C180.152 138.216 178.344 141.714 178.764 146.201L178.783 146.41L199.949 194.452ZM202.122 192.928L181.375 145.835C181.08 142.219 182.418 140.063 184.18 139.287C185.942 138.51 188.436 138.979 190.905 141.636L211.652 188.729C211.947 192.344 210.609 194.501 208.847 195.277C207.085 196.053 204.591 195.585 202.122 192.928Z" fill="#7642F9"/>
<path d="M208.736 180.256C208.736 180.256 221.115 180.603 231.837 176.614C237.198 174.619 242.231 171.506 244.966 166.534C247.702 161.562 247.945 154.869 244.165 146.289C240.385 137.708 235.281 133.371 229.767 132.033C224.252 130.696 218.558 132.309 213.468 134.919C203.287 140.138 195.189 149.506 195.189 149.506L197.155 151.218C197.155 151.218 205.11 142.134 214.657 137.24C219.43 134.793 224.513 133.436 229.152 134.56C233.79 135.685 238.215 139.24 241.783 147.338C245.35 155.436 244.987 161.101 242.687 165.282C240.386 169.464 235.954 172.299 230.927 174.17C220.872 177.911 208.8 177.65 208.8 177.65L208.736 180.256Z" fill="#7642F9"/>
<path d="M153.915 186.046C157.097 193.269 165.585 196.551 172.808 193.369C180.031 190.186 183.321 181.716 180.138 174.493C176.956 167.27 168.486 163.98 161.263 167.163C154.04 170.345 150.733 178.823 153.915 186.046ZM156.307 184.992C153.692 179.057 156.381 172.169 162.317 169.555C168.252 166.94 175.132 169.611 177.746 175.547C180.361 181.482 177.698 188.379 171.762 190.994C165.827 193.609 158.922 190.928 156.307 184.992Z" fill="#7642F9"/>
<path d="M178.603 187.975L195.281 180.627L194.231 178.245L177.553 185.593L178.603 187.975Z" fill="#7642F9"/>
<path d="M170.205 168.915L186.883 161.567L185.833 159.184L169.155 166.532L170.205 168.915Z" fill="#7642F9"/>
<path d="M206.641 175.489C206.641 175.489 217.542 175.759 227.17 172.618C231.984 171.048 236.563 168.618 239.232 164.643C241.9 160.668 242.405 155.211 239.4 148.388C236.394 141.565 232.026 138.255 227.292 137.541C222.557 136.827 217.674 138.566 213.266 141.058C204.451 146.043 197.293 154.269 197.293 154.269L199.249 155.985C199.249 155.985 206.282 148.002 214.549 143.327C218.682 140.99 223.066 139.535 226.902 140.113C230.738 140.691 234.25 143.156 237.017 149.437C239.784 155.719 239.233 159.973 237.071 163.194C234.908 166.415 230.876 168.668 226.362 170.14C217.333 173.086 206.695 172.887 206.695 172.887L206.641 175.489Z" fill="#7642F9"/>
<path d="M171.818 188.33C175.748 185.895 177.423 180.883 175.508 176.536L173.046 177.62C174.373 180.634 173.336 184.062 170.734 185.868L171.818 188.33Z" fill="#7642F9"/>
<path d="M206.246 185.754L208.629 184.704L191.834 146.583L189.451 147.633L206.246 185.754Z" fill="#7642F9"/>
<path d="M183.565 181.671L191.788 178.049L189.164 172.092L186.781 173.142L188.356 176.716L182.516 179.289L183.565 181.671Z" fill="#7642F9"/>
</svg>
