<svg width="342" height="369" viewBox="0 0 342 369" fill="none" xmlns="http://www.w3.org/2000/svg">
<g clip-path="url(#clip0_1_20)">
<mask id="mask0_1_20" style="mask-type:luminance" maskUnits="userSpaceOnUse" x="0" y="0" width="342" height="369">
<path d="M0 0H342V369H0V0Z" fill="white"/>
</mask>
<g mask="url(#mask0_1_20)">
<path d="M64.2905 124.434H147.44C148.261 122.177 146.485 119.678 144.416 118.734C142.347 117.79 140.002 118.033 137.763 118.238C135.525 118.443 133.146 118.563 131.164 117.421C127.333 115.213 126.816 109.672 125.073 105.379C122.465 98.9522 115.994 94.5972 109.497 94.8961C103 95.195 96.8968 100.128 94.805 106.772C93.7259 110.198 93.5063 114.215 91.0615 116.693C88.4906 119.298 84.4358 119.13 81.0348 118.122C77.6338 117.115 74.3088 115.426 70.7833 115.53C67.2577 115.633 64.0509 120.638 64.2905 124.434Z" fill="#F4F4F4"/>
<path d="M-54.7602 83.3462H21.2574C19.5525 79.0919 16.1583 75.3234 12.0972 73.8123C8.03551 72.3024 3.39285 72.7203 -0.379116 74.9373C-2.69675 76.2992 -4.78643 78.3364 -7.39588 78.7572C-11.5056 79.4205 -15.0401 75.9428 -18.5165 73.4872C-24.4209 69.3167 -31.8393 67.7196 -38.7748 69.1259C-45.7103 70.5322 -50.6616 77.1476 -54.7602 83.3462Z" fill="#F4F4F4"/>
<path d="M278.482 123.769H349.46C349.217 121.3 347.729 118.407 345.864 116.951C344 115.495 341.553 114.94 339.303 115.463C337.548 115.871 335.928 116.893 334.142 117.081C331.333 117.377 328.697 115.556 326.687 113.419C324.678 111.282 323.013 108.741 320.725 106.959C317.736 104.63 313.778 103.81 310.202 104.779C306.625 105.748 303.496 108.488 301.881 112.064C301.187 113.601 300.764 115.268 300.042 116.79C299.32 118.311 298.211 119.738 296.693 120.227C294.162 121.042 291.672 119.06 289.13 118.286C285.247 117.104 280.459 119.974 278.482 123.769Z" fill="#F4F4F4"/>
<path d="M230.782 194.833H238.253C239.643 194.833 240.771 196.049 240.771 197.55V202.586C240.771 204.087 239.643 205.303 238.253 205.303H232.205V203.3C230.383 203.3 228.635 202.519 227.346 201.128L226.438 200.148L230.782 194.833Z" fill="#EBA48E"/>
<path d="M230.782 194.833L226.438 200.148L207.783 195.469L210.363 188.023L230.782 194.833Z" fill="#EBA48E"/>
<path d="M210.363 188.022L211.274 188.326L211.569 196.419L207.782 195.469L210.363 188.022Z" fill="white"/>
<path d="M174.644 159.222C177.104 157.14 180.647 157.512 182.689 160.067L202.041 184.285L205.538 185.557L202.289 194.935L200.454 194.506C197.55 193.827 194.902 192.222 192.854 189.9L174.017 168.544C171.637 165.845 171.928 161.522 174.644 159.222Z" fill="#9FE146"/>
<path d="M202.186 195.233L202.289 194.935L205.539 185.558L205.86 184.631C206.044 184.099 206.593 183.829 207.085 184.028L210.284 185.318C210.777 185.518 211.026 186.109 210.842 186.64L210.582 187.392L207.542 196.162L207.168 197.243C206.984 197.774 206.435 198.044 205.943 197.845L202.744 196.555C202.252 196.356 202.002 195.765 202.186 195.233Z" fill="#3985D7"/>
<path d="M181.466 161.076C179.666 158.823 176.662 158.217 174.229 159.614C174.362 159.479 174.498 159.347 174.644 159.223C177.104 157.14 180.648 157.512 182.689 160.067L202.042 184.285L205.539 185.558L205.017 187.063L201.09 185.634L181.466 161.076Z" fill="#B8FB5F"/>
<path d="M181.38 209.617L221.714 221.199C228.686 223.201 231.938 231.853 228.226 238.529L204.715 280.825L191.624 274.559L210.437 235.961L172.127 227.321C164.715 225.65 160.351 217.335 162.833 209.617H181.38Z" fill="#422C4F"/>
<path d="M193.318 277.445L194.301 275.84L201.74 279.401L199.989 282.841L191.697 280.33C192.205 279.35 192.742 278.385 193.318 277.445Z" fill="#EBA48E"/>
<path d="M195.364 284.372L196.057 286.275L195.133 285.573C194.766 285.294 194.328 285.145 193.88 285.145H189.536C190.169 283.496 190.889 281.888 191.697 280.329L199.989 282.84L199.488 283.823H195.71C195.448 283.823 195.268 284.108 195.364 284.372Z" fill="white"/>
<path d="M204.897 292.567H187.323L187.643 291.227C188.14 289.15 188.778 287.121 189.536 285.145H193.88C194.328 285.145 194.766 285.295 195.133 285.574L196.057 286.275L195.364 284.372C195.268 284.109 195.448 283.824 195.71 283.824H199.488L202.28 286.654C203.545 287.937 205.215 288.651 206.95 288.651H208.853C210.716 288.651 212.341 289.771 213.178 291.427L209.554 292.124C208.017 292.419 206.458 292.567 204.897 292.567Z" fill="#422C4F"/>
<path d="M204.896 292.567C206.457 292.567 208.017 292.419 209.554 292.124L213.178 291.427C213.533 292.131 213.75 292.928 213.778 293.781L208.241 294.322C207.366 294.407 206.487 294.451 205.608 294.451H186.873L187.323 292.567H204.896Z" fill="white"/>
<path d="M194.301 275.84L201.74 279.401L200.936 280.98L192.837 278.254L194.301 275.84Z" fill="#422C4F"/>
<path d="M243.608 205.722H245.512L250.413 224.426C254.25 239.069 252.694 254.729 246.101 268.148L243.712 269.119L243.608 205.722Z" fill="#7642F9"/>
<path d="M250.413 224.426L245.512 205.722H247.297L257.356 246.005C258.262 249.632 261.31 252.153 264.792 252.153C265.055 252.153 265.268 252.383 265.268 252.666V260.355L246.101 268.148C252.694 254.729 254.25 239.069 250.413 224.426Z" fill="#7642F9"/>
<path d="M239.8 300.809C239.8 316.765 251.789 329.701 266.577 329.701C281.366 329.701 293.355 316.765 293.355 300.809C293.355 284.854 281.366 271.918 266.577 271.918C251.789 271.918 239.8 284.854 239.8 300.809Z" fill="#422C4F"/>
<path d="M247.297 300.809C247.297 312.298 255.929 321.611 266.578 321.611C277.226 321.611 285.857 312.298 285.857 300.809C285.857 289.321 277.226 280.008 266.578 280.008C255.929 280.008 247.297 289.321 247.297 300.809Z" fill="#485275"/>
<path d="M250.834 300.809C250.834 310.19 257.882 317.795 266.577 317.795C275.272 317.795 282.32 310.19 282.32 300.809C282.32 291.428 275.272 283.824 266.577 283.824C257.882 283.824 250.834 291.428 250.834 300.809Z" fill="#C6D2D6"/>
<path d="M266.577 283.824C269.549 283.824 272.33 284.714 274.702 286.259C273.607 285.96 272.461 285.8 271.281 285.8C263.598 285.8 257.369 292.52 257.369 300.809C257.369 309.099 263.598 315.818 271.281 315.818C272.461 315.818 273.607 315.658 274.702 315.36C272.33 316.905 269.55 317.795 266.577 317.795C257.882 317.795 250.834 310.19 250.834 300.809C250.834 291.428 257.882 283.824 266.577 283.824Z" fill="#99A2AF"/>
<path d="M259.635 300.809C259.635 304.946 262.743 308.299 266.577 308.299C270.411 308.299 273.52 304.946 273.52 300.809C273.52 296.672 270.411 293.319 266.577 293.319C262.743 293.319 259.635 296.672 259.635 300.809Z" fill="#99A2AF"/>
<path d="M261.874 300.809C261.874 303.612 263.98 305.884 266.577 305.884C269.175 305.884 271.281 303.612 271.281 300.809C271.281 298.006 269.175 295.735 266.577 295.735C263.98 295.735 261.874 298.006 261.874 300.809Z" fill="#7642F9"/>
<path d="M102.256 300.809C102.256 316.765 114.245 329.701 129.033 329.701C143.823 329.701 155.811 316.765 155.811 300.809C155.811 284.854 143.823 271.918 129.033 271.918C114.245 271.918 102.256 284.854 102.256 300.809Z" fill="#422C4F"/>
<path d="M109.753 300.809C109.753 312.298 118.385 321.611 129.033 321.611C139.681 321.611 148.312 312.298 148.312 300.809C148.312 289.321 139.681 280.008 129.033 280.008C118.385 280.008 109.753 289.321 109.753 300.809Z" fill="#485275"/>
<path d="M113.291 300.809C113.291 310.19 120.339 317.795 129.033 317.795C137.728 317.795 144.776 310.19 144.776 300.809C144.776 291.428 137.728 283.824 129.033 283.824C120.339 283.824 113.291 291.428 113.291 300.809Z" fill="#C6D2D6"/>
<path d="M129.033 283.824C132.006 283.824 134.786 284.714 137.158 286.259C136.063 285.96 134.917 285.8 133.737 285.8C126.054 285.8 119.826 292.52 119.826 300.809C119.826 309.099 126.054 315.818 133.737 315.818C134.917 315.818 136.063 315.658 137.158 315.36C134.786 316.905 132.006 317.795 129.033 317.795C120.338 317.795 113.29 310.19 113.29 300.809C113.29 291.428 120.338 283.824 129.033 283.824Z" fill="#99A2AF"/>
<path d="M122.091 300.809C122.091 304.946 125.199 308.299 129.033 308.299C132.867 308.299 135.975 304.946 135.975 300.809C135.975 296.672 132.867 293.319 129.033 293.319C125.199 293.319 122.091 296.672 122.091 300.809Z" fill="#99A2AF"/>
<path d="M124.33 300.809C124.33 303.612 126.436 305.884 129.033 305.884C131.631 305.884 133.737 303.612 133.737 300.809C133.737 298.006 131.631 295.735 129.033 295.735C126.436 295.735 124.33 298.006 124.33 300.809Z" fill="#7642F9"/>
<path d="M265.286 262.544C251.494 263.013 239.699 273.427 236.029 287.78L235.433 290.111L234.785 290.454L236.029 285.591C239.699 271.239 251.494 260.824 265.286 260.355C265.642 260.343 265.999 260.337 266.357 260.337C272.294 260.337 277.99 262.008 282.996 265.128L282.085 266.77C277.303 264.003 271.937 262.527 266.357 262.527C265.999 262.527 265.642 262.532 265.286 262.544Z" fill="white"/>
<path d="M262.768 275.617L235.433 290.111L236.029 287.78C239.699 273.427 251.495 263.013 265.286 262.544C265.643 262.533 265.999 262.527 266.358 262.527C271.937 262.527 277.304 264.003 282.085 266.77L277.175 275.617H262.768Z" fill="#EAEAEA"/>
<path d="M233.491 292.644H246.268C252.012 292.644 257.52 290.182 261.582 285.799C265.643 281.418 271.152 278.956 276.895 278.956H292.044L287.25 273.784C281.709 267.805 274.193 264.447 266.357 264.447C256.263 264.447 246.868 270.005 241.442 279.188L233.491 292.644Z" fill="#7642F9"/>
<path d="M243.608 205.722L248.508 224.427C252.438 239.424 250.713 255.489 243.712 269.12L241.265 273.883C234.338 287.368 221.175 295.735 206.885 295.735H86.2769L90.5961 278.815C94.8578 262.123 104.809 247.783 118.454 238.673L126.264 233.458H193.361V236.621C193.361 238.721 192.119 240.587 190.274 241.257C183.095 243.867 177.941 250.691 177.021 258.803C175.585 271.461 184.739 282.621 196.559 282.621H206.37C215.775 282.621 224.526 277.432 229.567 268.866L234.116 261.137C239.132 252.614 240.847 242.308 238.894 232.435L233.611 205.722H243.608Z" fill="#7642F9"/>
<path d="M126.264 233.457H198.781V224.17H140.955C136.933 224.17 133.082 225.92 130.274 229.025L126.264 233.457Z" fill="#422C4F"/>
<path d="M168.425 297.019H200.984C215.698 297.019 229.271 288.392 236.404 274.505L238.851 269.742C246.053 255.721 247.793 239.503 243.752 224.077C242.451 219.114 243.055 213.693 245.409 209.204C245.732 208.587 245.531 207.803 244.959 207.454C244.386 207.105 243.66 207.323 243.336 207.939C240.673 213.021 239.989 219.158 241.461 224.776C245.331 239.546 243.664 255.073 236.769 268.497L234.322 273.26C227.608 286.331 214.834 294.45 200.984 294.45H168.425C167.767 294.45 167.235 295.025 167.235 295.734C167.235 296.443 167.767 297.019 168.425 297.019Z" fill="#EAEAEA"/>
<path d="M167.245 290.705H92.6451L93.7871 291.938C95.6118 293.906 98.0857 295.012 100.667 295.012H159.387C162.494 295.012 165.413 293.412 167.245 290.705Z" fill="#7642F9"/>
<path d="M118.529 286.523C118.529 296.139 125.753 303.934 134.666 303.934C143.578 303.934 150.802 296.139 150.802 286.523C150.802 276.908 143.578 269.113 134.666 269.113C125.753 269.113 118.529 276.908 118.529 286.523Z" fill="#99A2AF"/>
<path d="M134.666 299.913C141.509 299.913 147.076 293.906 147.076 286.524C147.076 279.141 141.509 273.133 134.666 273.133C127.822 273.133 122.255 279.141 122.255 286.524C122.255 293.906 127.822 299.913 134.666 299.913ZM134.666 274.558C140.78 274.558 145.756 279.926 145.756 286.524C145.756 293.121 140.78 298.489 134.666 298.489C128.551 298.489 123.575 293.121 123.575 286.524C123.575 279.926 128.551 274.558 134.666 274.558Z" fill="#485275"/>
<path d="M126.606 287.236H142.724C143.089 287.236 143.385 286.917 143.385 286.524C143.385 286.131 143.089 285.811 142.724 285.811H126.606C126.242 285.811 125.946 286.131 125.946 286.524C125.946 286.917 126.242 287.236 126.606 287.236Z" fill="#485275"/>
<path d="M127.994 284.387H141.337C141.702 284.387 141.997 284.068 141.997 283.674C141.997 283.282 141.702 282.962 141.337 282.962H127.994C127.63 282.962 127.334 283.282 127.334 283.674C127.334 284.068 127.63 284.387 127.994 284.387Z" fill="#485275"/>
<path d="M129.857 281.538H139.474C139.839 281.538 140.134 281.219 140.134 280.825C140.134 280.433 139.839 280.113 139.474 280.113H129.857C129.493 280.113 129.198 280.433 129.198 280.825C129.198 281.219 129.493 281.538 129.857 281.538Z" fill="#485275"/>
<path d="M132.075 278.689H137.256C137.621 278.689 137.916 278.37 137.916 277.977C137.916 277.584 137.621 277.265 137.256 277.265H132.075C131.711 277.265 131.415 277.584 131.415 277.977C131.415 278.37 131.711 278.689 132.075 278.689Z" fill="#485275"/>
<path d="M127.994 290.085H141.337C141.702 290.085 141.997 289.766 141.997 289.373C141.997 288.98 141.702 288.66 141.337 288.66H127.994C127.63 288.66 127.334 288.98 127.334 289.373C127.334 289.766 127.63 290.085 127.994 290.085Z" fill="#485275"/>
<path d="M129.857 292.934H139.474C139.839 292.934 140.134 292.615 140.134 292.222C140.134 291.829 139.839 291.509 139.474 291.509H129.857C129.493 291.509 129.198 291.829 129.198 292.222C129.198 292.615 129.493 292.934 129.857 292.934Z" fill="#485275"/>
<path d="M132.075 295.783H137.256C137.621 295.783 137.916 295.464 137.916 295.071C137.916 294.678 137.621 294.358 137.256 294.358H132.075C131.711 294.358 131.415 294.678 131.415 295.071C131.415 295.464 131.711 295.783 132.075 295.783Z" fill="#485275"/>
<path d="M117.251 248.816C124.928 243.782 133.739 241.119 142.723 241.119H145.735C161.038 241.119 174.014 254.624 174.004 271.136C173.999 278.618 171.449 285.455 167.245 290.706H146.203H125.16H92.6457L95.5037 279.728C98.863 266.824 106.635 255.777 117.251 248.816Z" fill="white"/>
<path d="M121.554 260.031C127.175 256.344 133.628 254.395 140.207 254.395H142.412C153.619 254.395 163.121 264.284 163.113 276.375C163.109 281.854 161.242 286.86 158.164 290.706H142.755H127.346H103.536L105.629 282.667C108.089 273.218 113.78 265.128 121.554 260.031Z" fill="#7642F9"/>
<path d="M121.212 286.272H146.325C146.719 286.272 147.038 285.927 147.038 285.501C147.038 285.076 146.719 284.731 146.325 284.731H121.212C120.818 284.731 120.498 285.076 120.498 285.501C120.498 285.927 120.818 286.272 121.212 286.272Z" fill="#485275"/>
<path d="M121.986 283.222H147.098C147.492 283.222 147.812 282.877 147.812 282.451C147.812 282.026 147.492 281.681 147.098 281.681H121.986C121.591 281.681 121.271 282.026 121.271 282.451C121.271 282.877 121.591 283.222 121.986 283.222Z" fill="#485275"/>
<path d="M122.759 280.172H147.872C148.266 280.172 148.586 279.827 148.586 279.401C148.586 278.976 148.266 278.631 147.872 278.631H122.759C122.365 278.631 122.045 278.976 122.045 279.401C122.045 279.827 122.365 280.172 122.759 280.172Z" fill="#485275"/>
<path d="M123.533 277.121H148.645C149.039 277.121 149.359 276.777 149.359 276.351C149.359 275.926 149.039 275.581 148.645 275.581H123.533C123.139 275.581 122.818 275.926 122.818 276.351C122.818 276.777 123.139 277.121 123.533 277.121Z" fill="#485275"/>
<path d="M124.306 274.071H149.419C149.813 274.071 150.133 273.727 150.133 273.301C150.133 272.875 149.813 272.53 149.419 272.53H124.306C123.912 272.53 123.592 272.875 123.592 273.301C123.592 273.727 123.912 274.071 124.306 274.071Z" fill="#485275"/>
<path d="M193.361 233.458H126.264C127.75 235.06 129.763 235.961 131.863 235.961H187.15C189.432 235.961 191.638 235.072 193.361 233.458Z" fill="#7642F9"/>
<path d="M233.611 205.722H247.297H253.605V191.897H249.264C245.539 191.897 241.858 192.778 238.482 194.478L235.27 196.095C233.206 197.134 232.127 199.617 232.704 201.993L233.611 205.722Z" fill="#7642F9"/>
<path d="M253.605 191.897H255.707V205.722H253.605V191.897Z" fill="#EAEAEA"/>
<path d="M256.778 205.722H255.707V191.897H256.778V205.722Z" fill="white"/>
<path d="M94.6583 231.477C94.3791 231.176 94.3791 230.687 94.6583 230.387C94.9369 230.086 95.3891 230.086 95.6678 230.387L101.648 236.839H99.6281L94.6583 231.477Z" fill="#C6D2D6"/>
<path d="M101.648 236.839L111.333 247.29C111.613 247.591 111.613 248.078 111.333 248.38C111.195 248.53 111.012 248.605 110.829 248.605C110.646 248.605 110.464 248.53 110.324 248.38L99.6287 236.839H101.648Z" fill="white"/>
<path d="M130.897 239.77H171.141C171.798 239.77 172.331 239.195 172.331 238.486C172.331 237.777 171.798 237.203 171.141 237.203H130.897C128.022 237.203 125.32 235.994 123.287 233.802C120.805 231.123 117.504 229.648 113.994 229.648H74.8518C74.1948 229.648 73.6624 230.223 73.6624 230.932C73.6624 231.642 74.1948 232.216 74.8518 232.216H113.994C116.868 232.216 119.571 233.424 121.605 235.617C124.086 238.295 127.386 239.77 130.897 239.77Z" fill="white"/>
<path d="M243.608 205.722H233.612L233.842 206.885H243.913L243.608 205.722Z" fill="#7642F9"/>
<path d="M181.38 209.617L215.017 220.464C222.458 222.864 225.81 232.185 221.815 239.372L198.772 280.825L185.681 274.559L204.494 235.961L166.184 227.321C158.772 225.65 154.407 217.335 156.889 209.617H181.38Z" fill="#454F6B"/>
<path d="M187.374 277.445L188.357 275.84L195.796 279.401L194.046 282.841L185.753 280.33C186.262 279.35 186.799 278.385 187.374 277.445Z" fill="#F1C8AC"/>
<path d="M189.42 284.372L190.113 286.275L189.189 285.573C188.822 285.294 188.385 285.145 187.937 285.145H183.593C184.226 283.496 184.946 281.888 185.754 280.329L194.046 282.84L193.545 283.823H189.767C189.505 283.823 189.324 284.108 189.42 284.372Z" fill="white"/>
<path d="M198.953 292.567H181.38L181.7 291.227C182.196 289.15 182.834 287.121 183.593 285.145H187.937C188.385 285.145 188.822 285.295 189.189 285.574L190.113 286.275L189.42 284.372C189.324 284.109 189.505 283.824 189.767 283.824H193.545L196.337 286.654C197.601 287.937 199.271 288.651 201.007 288.651H202.909C204.772 288.651 206.398 289.771 207.235 291.427L203.611 292.124C202.073 292.419 200.515 292.567 198.953 292.567Z" fill="#422C4F"/>
<path d="M198.953 292.567C200.514 292.567 202.073 292.419 203.611 292.124L207.234 291.427C207.589 292.131 207.806 292.928 207.834 293.781L202.298 294.322C201.422 294.407 200.544 294.451 199.664 294.451H180.929L181.38 292.567H198.953Z" fill="white"/>
<path d="M188.357 275.84L195.796 279.401L194.993 280.98L186.893 278.254L188.357 275.84Z" fill="#422C4F"/>
<path d="M188.842 145.41L189.861 139.177C190.202 137.09 191.881 135.569 193.845 135.569H199.642L199.124 138.529C198.749 140.672 198.785 142.876 199.231 145.003L199.484 146.213C199.592 146.725 199.23 147.212 198.744 147.212H197.572C196.075 153.053 189.492 155.545 184.921 151.756L177.732 145.8L181.548 148.676C184.355 150.791 188.248 149.048 188.842 145.41Z" fill="#F1C8AC"/>
<path d="M200.015 133.434L199.642 135.569H193.846C191.882 135.569 190.202 137.09 189.861 139.177L188.843 145.41C188.249 149.049 184.355 150.791 181.549 148.676L177.732 145.8L177.732 145.799V133.434H200.015Z" fill="#EBA48E"/>
<path d="M177.731 145.799L184.921 151.757L183.963 154.719L177.731 145.799Z" fill="#422C4F"/>
<path d="M172.7 154.026L177.732 145.799L183.963 154.719L182.333 159.767L172.7 154.026Z" fill="#F1C8AC"/>
<path d="M195.319 140.487C195.21 141.2 195.411 141.829 195.768 141.893C196.125 141.956 196.502 141.43 196.611 140.716C196.719 140.003 196.518 139.373 196.162 139.31C195.805 139.247 195.428 139.774 195.319 140.487Z" fill="#422C4F"/>
<path d="M197.022 137.976C196.425 137.612 195.757 137.662 195.189 138.067C194.631 138.466 194.11 137.497 194.665 137.1C195.535 136.478 196.642 136.458 197.546 137.01C198.127 137.364 197.605 138.332 197.022 137.976Z" fill="#422C4F"/>
<path d="M195.612 144.845L194.45 145.276C192.749 145.909 190.91 145.969 189.177 145.449L186.279 144.568L186.959 143.103L189.177 143.768C190.91 144.288 192.749 144.227 194.45 143.595L195.612 143.163C196.639 142.781 197.692 142.487 198.762 142.284L199.177 142.204L199.557 143.832L198.762 143.965C197.692 144.169 196.639 144.463 195.612 144.845Z" fill="white"/>
<path d="M186.279 144.568L189.177 145.449C190.91 145.968 192.749 145.908 194.45 145.276L195.612 144.844C196.638 144.462 197.691 144.168 198.761 143.964L199.557 143.832L199.682 144.37C199.899 145.301 199.852 146.282 199.549 147.185L198.898 149.12C197.756 152.515 194.846 154.848 191.504 155.046C189.422 155.169 187.373 154.448 185.76 153.024L183.342 150.893L186.279 144.568Z" fill="#81D2CF"/>
<path d="M189.114 143.749L188.843 145.41C188.408 148.073 186.205 149.713 183.955 149.575L186.96 143.103L189.114 143.749Z" fill="#422C4F"/>
<path d="M184.921 147.169L187.116 153.919C187.188 154.142 187.019 154.37 186.801 154.342C185.161 154.131 183.708 153.097 182.882 151.553L180.096 146.343L184.921 147.169Z" fill="#454F6B"/>
<path d="M187.067 136.851L185.857 144.248C185.65 145.51 184.435 146.262 183.321 145.818L171.401 141.055V131.85C171.401 122.392 178.507 114.726 187.273 114.726C195.878 114.726 202.879 122.116 203.132 131.334H193.162C190.158 131.334 187.589 133.66 187.067 136.851Z" fill="#7642F9"/>
<path d="M177.415 128.629C178.187 128.629 178.934 128.177 179.316 127.388C180.874 124.171 183.923 122.173 187.273 122.173C188.456 122.173 189.416 121.138 189.416 119.862C189.416 118.585 188.456 117.551 187.273 117.551C182.321 117.551 177.817 120.5 175.519 125.247C174.97 126.379 175.377 127.775 176.426 128.366C176.742 128.544 177.081 128.629 177.415 128.629Z" fill="white"/>
<path d="M193.828 124.456C194.488 124.456 195.139 124.128 195.559 123.509C196.258 122.479 196.049 121.032 195.094 120.279L194.994 120.201C194.033 119.458 192.695 119.696 192.005 120.733C191.316 121.771 191.537 123.215 192.498 123.959L192.565 124.011C192.947 124.312 193.389 124.456 193.828 124.456Z" fill="white"/>
<path d="M183.32 145.818C184.434 146.263 185.65 145.51 185.857 144.248L187.067 136.851C187.589 133.66 190.158 131.335 193.162 131.335H203.132C203.137 131.506 203.144 131.678 203.144 131.851V133.435H193.69C191.38 133.435 189.403 135.224 189.002 137.678L187.801 145.017C187.372 147.639 184.782 149.135 182.522 148.066L172.54 143.343C171.848 143.015 171.401 142.277 171.401 141.461V141.055L183.32 145.818Z" fill="#7642F9"/>
<path d="M184.297 205.668L181.379 191.897L185.569 167.129C186.068 164.18 184.765 161.216 182.333 159.767L172.7 154.027C171.439 153.275 169.877 153.447 168.783 154.459C160.848 161.798 155.883 172.19 154.947 183.421L153.133 205.184C152.935 207.565 154.673 209.617 156.889 209.617H181.379C183.302 209.617 184.726 207.69 184.297 205.668Z" fill="#B8FB5F"/>
<path d="M169.773 164.322L169.691 164.659C168.679 168.867 169.42 173.342 171.72 176.911L181.38 191.897L183.343 180.291L169.773 164.322Z" fill="#9FE146"/>
<path d="M183.236 156.971L185.884 158.448L183.236 161.529L182.333 159.767L183.236 156.971Z" fill="#B8FB5F"/>
<path d="M185.883 158.447L186.483 163.712L183.757 160.923L185.883 158.447Z" fill="#9FE146"/>
<path d="M171.14 153.562L173.947 150.893L183.963 156.8L182.596 163.049L171.14 153.562Z" fill="#A7E850"/>
<path d="M227.693 197.41H235.165C236.555 197.41 237.683 198.626 237.683 200.127V205.163C237.683 206.663 236.555 207.88 235.165 207.88H229.117V205.877C227.295 205.877 225.547 205.095 224.258 203.704L223.349 202.725L227.693 197.41Z" fill="#F1C8AC"/>
<path d="M227.693 197.409L223.349 202.724L204.694 198.045L207.275 190.599L227.693 197.409Z" fill="#F1C8AC"/>
<path d="M207.274 190.599L208.186 190.903L208.48 198.995L204.694 198.045L207.274 190.599Z" fill="#EBA48E"/>
<path d="M171.556 161.799C174.016 159.716 177.559 160.088 179.601 162.644L198.953 186.862L202.45 188.134L199.201 197.511L197.366 197.082C194.462 196.403 191.814 194.799 189.766 192.477L170.929 171.12C168.549 168.422 168.84 164.098 171.556 161.799Z" fill="#B8FB5F"/>
<path d="M199.097 197.809L199.201 197.511L202.45 188.134L202.771 187.207C202.956 186.676 203.504 186.406 203.997 186.604L207.195 187.895C207.688 188.094 207.938 188.685 207.753 189.217L207.493 189.969L204.454 198.739L204.079 199.819C203.895 200.35 203.347 200.62 202.854 200.422L199.655 199.131C199.163 198.933 198.913 198.341 199.097 197.809Z" fill="#9FE146"/>
<path d="M178.377 163.652C176.578 161.4 173.573 160.793 171.14 162.191C171.273 162.055 171.409 161.923 171.556 161.799C174.016 159.716 177.559 160.088 179.601 162.644L198.953 186.862L202.451 188.134L201.928 189.639L198.001 188.211L178.377 163.652Z" fill="#A7E850"/>
<path d="M226.663 205.864C226.096 204.745 224.793 204.334 223.755 204.948L223.747 204.953C223.791 204.922 223.828 204.886 223.874 204.859L228.664 202.027C229.702 201.413 231.005 201.823 231.573 202.943C232.141 204.062 231.761 205.467 230.723 206.08L225.94 208.908C226.876 208.257 227.207 206.934 226.663 205.864Z" fill="#422C4F"/>
<path d="M224.905 209.198C224.147 209.198 223.413 208.763 223.024 207.996C222.481 206.926 222.812 205.604 223.747 204.953L223.755 204.948C224.793 204.334 226.095 204.745 226.663 205.864C227.206 206.934 226.876 208.257 225.94 208.908L225.933 208.913C225.606 209.106 225.253 209.198 224.905 209.198Z" fill="#485275"/>
<path d="M69.8967 332.139C69.8967 334.498 122.611 336.409 187.637 336.409C252.663 336.409 305.378 334.498 305.378 332.139C305.378 329.781 252.663 327.869 187.637 327.869C122.611 327.869 69.8967 329.781 69.8967 332.139Z" fill="#6CA8BB"/>
<mask id="mask1_1_20" style="mask-type:luminance" maskUnits="userSpaceOnUse" x="0" y="0" width="342" height="369">
<path d="M342 0.000518799H0.0003829V369H342V0.000518799Z" fill="white"/>
</mask>
<g mask="url(#mask1_1_20)">
<path d="M57.8734 229.648H128.24V173.492H57.8734V229.648Z" fill="#7642F9"/>
<path d="M57.8734 177.943H128.24V173.492H57.8734V177.943Z" fill="white"/>
<path d="M119.46 184.67L119.778 186.118H93.0574L83.4861 184.67H119.46Z" fill="white"/>
<path d="M118.979 182.394L119.298 183.843H72.442L62.8707 182.394H118.979Z" fill="white"/>
<path d="M119.46 215.743L119.778 217.193H93.0574L83.4861 215.743H119.46Z" fill="white"/>
<path d="M118.979 213.468L119.298 214.917H72.442L62.8707 213.468H118.979Z" fill="white"/>
<path d="M55.8586 164.33L130.255 164.33L130.255 173.492L55.8587 173.493L55.8586 164.33Z" fill="#7642F9"/>
</g>
<g opacity="0.5">
<path d="M110.564 325.097C109.628 321.645 109.133 320.174 102.57 319.446C100.774 319.246 98.9566 319.852 97.1667 319.598C95.3757 319.343 93.4838 317.965 93.4828 316.028C93.482 313.954 95.6186 312.155 95.0177 310.18C94.5744 308.723 92.881 308.204 91.4569 308.264C90.0322 308.324 88.5577 308.725 87.2141 308.207C85.5671 307.572 84.5754 305.656 84.4367 303.785C84.2984 301.915 84.8548 300.074 85.4803 298.325C86.1052 296.577 86.8126 294.829 86.9957 292.964C87.3865 288.998 85.3088 285.137 82.559 282.437C78.7677 278.713 73.5752 276.685 68.4549 276.925C63.4483 277.16 57.2794 279.053 54.3557 283.718C52.6401 286.455 51.985 289.937 52.5729 293.186C52.8207 294.558 53.2799 295.975 52.9125 297.312C52.3752 299.268 50.3541 300.194 48.5732 300.905C46.7933 301.615 44.7852 302.643 44.3764 304.635C44.0055 306.44 45.2041 308.257 46.6862 309.211C48.1683 310.165 49.9096 310.505 51.5444 311.102C53.1797 311.699 54.8421 312.689 55.5493 314.38C56.1529 315.827 55.9482 317.529 56.4689 319.012C57.3498 321.517 60.1506 322.752 62.6275 322.487C65.1055 322.223 67.3244 320.8 69.4157 319.358C70.4557 318.641 71.5061 317.901 72.6908 317.52C73.876 317.138 75.2398 317.162 76.2701 317.906C77.557 318.834 78.215 320.766 79.7249 321.137C81.1889 321.497 82.4774 320.177 83.6064 319.121C84.7349 318.065 86.5374 317.204 87.6204 318.326C88.0949 318.817 88.2555 319.549 88.5404 320.187C89.6633 322.7 92.66 323.584 95.2405 323.327C97.8209 323.07 100.28 321.98 102.863 321.751C105.446 321.521 109.954 322.849 110.564 325.097Z" fill="#B7B7B7"/>
</g>
</g>
</g>
<defs>
<clipPath id="clip0_1_20">
<rect width="342" height="369" fill="white" transform="matrix(-1 0 0 1 342 0)"/>
</clipPath>
</defs>
</svg>
