<svg width="16" height="14" viewBox="0 0 16 14" fill="none" xmlns="http://www.w3.org/2000/svg">
<path id="Star 13" d="M7.5272 0.374296C7.68194 -0.0754915 8.31806 -0.075493 8.4728 0.374294L9.90457 4.53601C9.97401 4.73785 10.1639 4.87336 10.3774 4.87336L14.9471 4.87336C15.4384 4.87336 15.6351 5.50769 15.23 5.78563L11.5831 8.28806C11.3978 8.41524 11.3201 8.65045 11.3932 8.863L12.7976 12.9453C12.9544 13.4009 12.4393 13.7928 12.0419 13.5202L8.2829 10.9408C8.11243 10.8239 7.88757 10.8239 7.71711 10.9408L3.95807 13.5202C3.56073 13.7928 3.04561 13.4009 3.20237 12.9453L4.60681 8.863C4.67993 8.65045 4.60224 8.41524 4.4169 8.28806L0.769992 5.78563C0.36493 5.50769 0.561633 4.87336 1.05289 4.87336L5.62263 4.87336C5.83608 4.87336 6.02599 4.73785 6.09543 4.53602L7.5272 0.374296Z" fill="url(#paint0_diamond_114_459)"/>
<defs>
<radialGradient id="paint0_diamond_114_459" cx="0" cy="0" r="1" gradientUnits="userSpaceOnUse" gradientTransform="translate(8 7.5) rotate(90) scale(8.5 8.03518)">
<stop stop-color="#F8C23A"/>
<stop offset="1" stop-color="#D6F900"/>
</radialGradient>
</defs>
</svg>
