<svg  viewBox="0 0 160 197" fill="none" xmlns="http://www.w3.org/2000/svg">
<path d="M158.562 162.868C157.842 164.495 156.266 165.459 154.617 165.459C154.024 165.459 153.422 165.334 152.846 165.072L149.258 163.434C147.081 162.44 146.108 159.843 147.087 157.632C148.067 155.421 150.626 154.437 152.803 155.429L156.391 157.066C158.569 158.06 159.542 160.658 158.562 162.868ZM34.4512 40.2451C26.5884 40.2451 20.1912 47.088 20.1912 55.4986C20.1912 57.9226 22.1265 59.8873 24.5143 59.8873C26.9021 59.8873 28.8374 57.9226 28.8374 55.4986C28.8374 51.9277 31.3558 49.0224 34.4512 49.0224C36.839 49.0224 38.7743 47.0577 38.7743 44.6337C38.7743 42.2097 36.8385 40.2451 34.4512 40.2451ZM151.998 131.039C152.508 131.039 153.027 130.947 153.532 130.752L157.21 129.335C159.442 128.474 160.565 125.94 159.717 123.674C158.87 121.409 156.375 120.267 154.142 121.129L150.463 122.546C148.232 123.406 147.109 125.941 147.956 128.207C148.612 129.96 150.255 131.039 151.998 131.039ZM8.65002 146.802V159.667C8.65002 166.761 14.3344 172.532 21.322 172.532H70.9967C73.3844 172.532 75.3197 174.496 75.3197 176.92C75.3197 179.344 73.3844 181.309 70.9967 181.309H21.322C9.56699 181.309 0.00384247 171.601 0.00384247 159.667V142.598C0.00144075 142.537 0 142.476 0 142.414C0 142.352 0.000960408 142.29 0.00384247 142.229V73.5853C0.00144075 73.5243 0 73.4629 0 73.401C0 73.339 0.000960408 73.2776 0.00384247 73.2166V43.7701C0.00384247 33.3397 7.30986 24.6097 16.9989 22.5753V4.38867C16.9989 1.96466 18.9342 0 21.322 0H89.304C91.6918 0 93.6271 1.96466 93.6271 4.38867V22.5753C103.316 24.6097 110.622 33.3397 110.622 43.7701V103.296C110.622 105.72 108.687 107.684 106.299 107.684C103.911 107.684 101.976 105.72 101.976 103.296V77.7896H8.65002V138.025H70.9967C73.3844 138.025 75.3197 139.989 75.3197 142.413C75.3197 144.837 73.3844 146.802 70.9967 146.802H8.65002V146.802ZM25.645 22.1282H84.9809V8.77734H25.645V22.1282ZM8.65002 69.0123H101.976V43.7701C101.976 36.6766 96.2915 30.9055 89.304 30.9055H21.322C14.3344 30.9055 8.65002 36.6766 8.65002 43.7701V69.0123ZM20.1922 90.6543V125.16C20.1922 127.584 22.1275 129.549 24.5153 129.549C26.9031 129.549 28.8384 127.584 28.8384 125.16V90.6543C28.8384 88.2303 26.9031 86.2656 24.5153 86.2656C22.1275 86.2656 20.1922 88.2308 20.1922 90.6543ZM128.862 140.851V175.359C128.862 187.292 119.299 197 107.544 197C95.7876 197 86.225 187.292 86.225 175.359V158.196C86.2245 158.165 86.224 158.135 86.224 158.105C86.224 158.074 86.2245 158.044 86.225 158.014V140.851C86.225 128.918 95.7876 119.21 107.542 119.21H107.544C119.299 119.21 128.862 128.918 128.862 140.851ZM120.215 140.851C120.215 133.758 114.531 127.987 107.544 127.987H107.542C100.556 127.987 94.8711 133.758 94.8711 140.851V153.716H107.543C109.931 153.716 111.866 155.681 111.866 158.105C111.866 160.529 109.931 162.493 107.543 162.493H94.8711V175.359C94.8711 182.452 100.556 188.223 107.542 188.223C114.531 188.223 120.215 182.452 120.215 175.359V140.851ZM133.232 95.1293C131.056 94.1355 128.496 95.1215 127.517 97.3329L125.904 100.976C124.925 103.187 125.897 105.784 128.074 106.778C128.65 107.041 129.252 107.165 129.845 107.165C131.494 107.165 133.07 106.201 133.79 104.575L135.403 100.932C136.382 98.7207 135.41 96.1231 133.232 95.1293Z" fill="#7642F9"/>
</svg>
